<svg xmlns="http://www.w3.org/2000/svg" width="164.9" height="154" viewBox="0 0 164.9 154"><defs><style>.cls-1{fill:#f0b90b;}.cls-2,.cls-4{fill:#fffdfa;}.cls-3,.cls-5{fill:none;stroke:#191326;isolation:isolate;}.cls-3{stroke-width:3px;opacity:0.1;}.cls-4{fill-rule:evenodd;}.cls-5{stroke-width:2.84px;opacity:0.2;}</style></defs><title>bnb-busd</title><g id="BNB_Above" data-name="BNB Above"><circle class="cls-1" cx="42.5" cy="42.5" r="42.5"/><path class="cls-2" d="M37.8,56.8l-6.5,6.6-6.6-6.6,6.6-6.5ZM53.6,41,64.8,52.2l6.6-6.6L60.2,34.5l-6.6-6.6L35.9,45.6l6.6,6.6ZM76,50.3l-6.5,6.5L76,63.4l6.5-6.6ZM53.6,72.7,42.4,61.5,35.9,68,53.6,85.7,71.4,68l-6.6-6.5Zm0-9.3,6.6-6.6-6.6-6.5-6.5,6.5Z" transform="translate(-11.1 -14.3)"/><circle class="cls-3" cx="42.5" cy="42.5" r="40.3"/></g><g id="BUSD"><circle class="cls-1" cx="122.4" cy="111.5" r="42.5"/><path class="cls-4" d="M115.4,115l18.1-18.1,7.3,7.2-18.1,18.1Zm.1,21.6,28.9-28.9,7.2,7.2-28.9,29Zm39.7-18.1-28.9,29,7.2,7.2,28.9-28.9-7.2-7.3Zm-50.6,7.3,7.2-7.2,7.3,7.2-7.3,7.2Z" transform="translate(-11.1 -14.3)"/><circle class="cls-5" cx="122.4" cy="111.5" r="41.1"/></g></svg>