<svg xmlns="http://www.w3.org/2000/svg" width="166.1" height="154.2" viewBox="0 0 166.1 154.2"><defs><style>.cls-1{fill:#f0b90b;}.cls-2{fill:#fffdfa;}.cls-3{fill:none;stroke:#191326;stroke-width:3px;isolation:isolate;}.cls-3,.cls-9{opacity:0.1;}.cls-4{fill:#f5f3f3;}.cls-5{fill:#2f3030;}.cls-6{fill:#100c18;}.cls-7{fill:#828384;}.cls-8{fill:#343535;}.cls-10{fill:#191326;fill-rule:evenodd;}</style></defs><title>bnb-eth</title><g id="BNB_Below" data-name="BNB Below"><circle class="cls-1" cx="122.1" cy="110.5" r="42.5"/><path class="cls-2" d="M117.4,124.9l-6.5,6.5-6.6-6.5,6.6-6.6ZM133.2,109l11.2,11.2,6.6-6.5-11.2-11.2L133.2,96l-17.7,17.7,6.6,6.5Zm22.4,9.3-6.5,6.6,6.5,6.5,6.5-6.5Zm-22.4,22.4L122,129.5l-6.5,6.6,17.7,17.7L151,136l-6.6-6.5Zm0-9.3,6.6-6.5-6.6-6.6-6.5,6.6Z" transform="translate(-11.1 -14.3)"/><circle class="cls-3" cx="122.1" cy="110.5" r="40.3"/></g><g id="BNB_Above" data-name="BNB Above"><circle class="cls-1" cx="42.5" cy="42.5" r="42.5"/><path class="cls-2" d="M37.8,56.8l-6.5,6.6-6.6-6.6,6.6-6.5ZM53.6,41,64.8,52.2l6.6-6.6L60.2,34.5l-6.6-6.6L35.9,45.6l6.6,6.6ZM76,50.3l-6.5,6.5L76,63.4l6.5-6.6ZM53.6,72.7,42.4,61.5,35.9,68,53.6,85.7,71.4,68l-6.6-6.5Zm0-9.3,6.6-6.6-6.6-6.5-6.5,6.5Z" transform="translate(-11.1 -14.3)"/><circle class="cls-3" cx="42.5" cy="42.5" r="40.3"/></g><g id="ETH"><circle class="cls-4" cx="122.6" cy="110.7" r="43.5"/><path class="cls-5" d="M133.8,140.5v15.1l18.6-26.2Z" transform="translate(-11.1 -14.3)"/><path class="cls-6" d="M133.8,117.1v19.5l18.6-11Z" transform="translate(-11.1 -14.3)"/><path class="cls-5" d="M133.8,94.6v22.5l18.6,8.5Z" transform="translate(-11.1 -14.3)"/><path class="cls-7" d="M133.8,140.5v15.1l-18.7-26.2Z" transform="translate(-11.1 -14.3)"/><path class="cls-8" d="M133.8,117.1v19.5l-18.7-11Z" transform="translate(-11.1 -14.3)"/><path class="cls-7" d="M133.8,94.6v22.5l-18.7,8.5Z" transform="translate(-11.1 -14.3)"/><g class="cls-9"><path class="cls-10" d="M133.8,164.1a39,39,0,1,0-39-39A39,39,0,0,0,133.8,164.1Zm0,4.5a43.5,43.5,0,1,0-43.5-43.5A43.4,43.4,0,0,0,133.8,168.6Z" transform="translate(-11.1 -14.3)"/></g></g></svg>