<svg xmlns="http://www.w3.org/2000/svg" xmlns:xlink="http://www.w3.org/1999/xlink" width="166.1" height="154.2" viewBox="0 0 166.1 154.2"><defs><style>.cls-1{fill:#f0b90b;}.cls-2{fill:#fffdfa;}.cls-3{fill:none;stroke:#191326;stroke-width:3px;isolation:isolate;}.cls-3,.cls-9{opacity:0.1;}.cls-4{fill:#f5f3f3;}.cls-5{fill:#2f3030;}.cls-6{fill:#100c18;}.cls-7{fill:#828384;}.cls-8{fill:#343535;}.cls-10{fill:#191326;}.cls-10,.cls-12,.cls-14,.cls-17,.cls-18{fill-rule:evenodd;}.cls-11{fill:url(#linear-gradient);}.cls-12{fill:#606063;}.cls-13{fill:#bebebe;}.cls-14{fill:#612f01;}.cls-15{fill:#fedc90;}.cls-16{fill:#d1884f;}.cls-17{fill:url(#linear-gradient-2);}.cls-18{fill:#633001;}.cls-19{fill:#9e7200;}</style><linearGradient id="linear-gradient" x1="134.31" y1="97.64" x2="134.31" y2="12.64" gradientTransform="matrix(1, 0, 0, -1, -11.13, 165.66)" gradientUnits="userSpaceOnUse"><stop offset="0" stop-color="#54dade"/><stop offset="0.76" stop-color="#24c7d6"/></linearGradient><linearGradient id="linear-gradient-2" x1="128.28" y1="74.91" x2="128.28" y2="48.63" gradientTransform="matrix(1, 0, 0, -1, 0, 180)" gradientUnits="userSpaceOnUse"><stop offset="0" stop-color="#9f4a08"/><stop offset="0.37" stop-color="#7d3900"/><stop offset="1" stop-color="#8d4104"/></linearGradient></defs><title>bnb-cake</title><g id="BNB_Below" data-name="BNB Below"><circle class="cls-1" cx="122.1" cy="110.5" r="42.5"/><path class="cls-2" d="M117.4,124.9l-6.5,6.5-6.6-6.5,6.6-6.6ZM133.2,109l11.2,11.2,6.6-6.5-11.2-11.2L133.2,96l-17.7,17.7,6.6,6.5Zm22.4,9.3-6.5,6.6,6.5,6.5,6.5-6.5Zm-22.4,22.4L122,129.5l-6.5,6.6,17.7,17.7L151,136l-6.6-6.5Zm0-9.3,6.6-6.5-6.6-6.6-6.5,6.6Z" transform="translate(-11.1 -14.3)"/><circle class="cls-3" cx="122.1" cy="110.5" r="40.3"/></g><g id="BNB_Above" data-name="BNB Above"><circle class="cls-1" cx="42.5" cy="42.5" r="42.5"/><path class="cls-2" d="M37.8,56.8l-6.5,6.6-6.6-6.6,6.6-6.5ZM53.6,41,64.8,52.2l6.6-6.6L60.2,34.5l-6.6-6.6L35.9,45.6l6.6,6.6ZM76,50.3l-6.5,6.5L76,63.4l6.5-6.6ZM53.6,72.7,42.4,61.5,35.9,68,53.6,85.7,71.4,68l-6.6-6.5Zm0-9.3,6.6-6.6-6.6-6.5-6.5,6.5Z" transform="translate(-11.1 -14.3)"/><circle class="cls-3" cx="42.5" cy="42.5" r="40.3"/></g><g id="ETH"><circle class="cls-4" cx="122.6" cy="110.7" r="43.5"/><path class="cls-5" d="M133.8,140.5v15.1l18.6-26.2Z" transform="translate(-11.1 -14.3)"/><path class="cls-6" d="M133.8,117.1v19.5l18.6-11Z" transform="translate(-11.1 -14.3)"/><path class="cls-5" d="M133.8,94.6v22.5l18.6,8.5Z" transform="translate(-11.1 -14.3)"/><path class="cls-7" d="M133.8,140.5v15.1l-18.7-26.2Z" transform="translate(-11.1 -14.3)"/><path class="cls-8" d="M133.8,117.1v19.5l-18.7-11Z" transform="translate(-11.1 -14.3)"/><path class="cls-7" d="M133.8,94.6v22.5l-18.7,8.5Z" transform="translate(-11.1 -14.3)"/><g class="cls-9"><path class="cls-10" d="M133.8,164.1a39,39,0,1,0-39-39A39,39,0,0,0,133.8,164.1Zm0,4.5a43.5,43.5,0,1,0-43.5-43.5A43.4,43.4,0,0,0,133.8,168.6Z" transform="translate(-11.1 -14.3)"/></g></g><g id="CAKE"><circle class="cls-11" cx="123.2" cy="110.5" r="42.5"/><path class="cls-12" d="M106.7,129.5v.5a10.9,10.9,0,0,0,.1,1.8h-.1v.9a6.6,6.6,0,0,0,.1,1.4c1.1,8.6,13,15.4,27.5,15.4s26.4-6.8,27.5-15.4a6.6,6.6,0,0,0,.1-1.4v-.9h-.1a10.9,10.9,0,0,0,.1-1.8v-.5c-.4-9-12.6-16.3-27.6-16.3s-27.2,7.3-27.6,16.3Zm-2.3,0c.2-5.5,4-10.1,9.2-13.3s12.7-5.2,20.7-5.2,15.3,1.9,20.7,5.2,9,7.8,9.2,13.3h0v3.2c0,5.7-3.8,10.6-9.2,13.8s-12.7,5.3-20.7,5.3-15.3-2-20.7-5.3-9.2-8.1-9.2-13.8v-3.2Z" transform="translate(-11.1 -14.3)"/><path class="cls-13" d="M161.9,132.7c0,9.3-12.3,16.8-27.6,16.8s-27.6-7.5-27.6-16.8v-2.6h55.2v2.6Z" transform="translate(-11.1 -14.3)"/><path class="cls-4" d="M161.9,130c0,9.3-12.3,16.8-27.6,16.8s-27.6-7.5-27.6-16.8,12.4-16.8,27.6-16.8,27.6,7.5,27.6,16.8Z" transform="translate(-11.1 -14.3)"/><path id="H" class="cls-14" d="M110.9,125.3h0a5.4,5.4,0,0,0,.4,2.2h-.4v1c0,.4.1.9.1,1.3,1.1,6.4,9.9,11.4,20.6,11.4s19.5-5,20.6-11.4a5.7,5.7,0,0,0,.1-1.3v-1H152a7.6,7.6,0,0,0,.3-2.1h0c0-7-9.3-12.6-20.7-12.6S111,118.3,110.9,125.3Zm-2.2,0h0v3.2c0,4.6,3,8.4,7.1,10.9a31.4,31.4,0,0,0,15.8,4,30.8,30.8,0,0,0,15.8-4c4.1-2.5,7.2-6.3,7.2-10.9v-3.2c0-4.6-3.1-8.4-7.2-10.9a30.8,30.8,0,0,0-15.8-4,31.4,31.4,0,0,0-15.8,4C111.7,116.9,108.7,120.7,108.7,125.3Z" transform="translate(-11.1 -14.3)"/><path id="I" class="cls-15" d="M152.3,128.5c0,7-9.3,12.7-20.7,12.7s-20.7-5.7-20.7-12.7v-3h41.4Z" transform="translate(-11.1 -14.3)"/><path id="J" class="cls-16" d="M152.3,125.3c0,7-9.3,12.6-20.7,12.6s-20.7-5.6-20.7-12.6,9.3-12.6,20.7-12.6S152.3,118.3,152.3,125.3Z" transform="translate(-11.1 -14.3)"/><path class="cls-14" d="M117.2,118.5h0a7.8,7.8,0,0,0,.3,2.2h-.3v1a5.7,5.7,0,0,0,.1,1.3c1,6.4,9.8,11.4,20.6,11.4s19.5-5,20.5-11.4a5.7,5.7,0,0,0,.1-1.3v-1h-.3a7.6,7.6,0,0,0,.3-2.1h0c0-7-9.2-12.6-20.6-12.6S117.2,111.5,117.2,118.5Zm-2.3,0h0v3.2c0,4.6,3,8.4,7.1,10.9a33.4,33.4,0,0,0,31.7,0c4.1-2.5,7.1-6.3,7.1-10.9v-3.2c0-4.6-3-8.4-7.1-10.9a33.4,33.4,0,0,0-31.7,0C117.9,110.1,114.9,113.9,114.9,118.5Z" transform="translate(-11.1 -14.3)"/><path class="cls-15" d="M158.5,121.7c0,7-9.2,12.7-20.7,12.7s-20.6-5.7-20.6-12.7v-2.9h41.3Z" transform="translate(-11.1 -14.3)"/><path class="cls-16" d="M158.5,118.5c0,7-9.2,12.6-20.7,12.6s-20.6-5.6-20.6-12.6,9.2-12.6,20.6-12.6S158.5,111.5,158.5,118.5Z" transform="translate(-11.1 -14.3)"/><path class="cls-14" d="M110.9,111.7h0a5.4,5.4,0,0,0,.4,2.2h-.4v1c0,.4.1.9.1,1.3,1.1,6.4,9.9,11.4,20.6,11.4s19.5-5,20.6-11.4a5.7,5.7,0,0,0,.1-1.3v-1H152a7.6,7.6,0,0,0,.3-2.1h0c0-7-9.3-12.6-20.7-12.6S111,104.7,110.9,111.7Zm-2.2,0h0v3.2c0,4.6,3,8.4,7.1,10.9a31.4,31.4,0,0,0,15.8,4,30.8,30.8,0,0,0,15.8-4c4.1-2.5,7.2-6.3,7.2-10.9v-3.2c0-4.6-3.1-8.4-7.2-10.9a30.8,30.8,0,0,0-15.8-4,31.4,31.4,0,0,0-15.8,4C111.7,103.3,108.7,107.1,108.7,111.7Z" transform="translate(-11.1 -14.3)"/><path class="cls-15" d="M152.3,114.9c0,7-9.3,12.7-20.7,12.7s-20.7-5.7-20.7-12.7V112h41.4Z" transform="translate(-11.1 -14.3)"/><path class="cls-16" d="M152.3,111.7c0,7-9.3,12.6-20.7,12.6s-20.7-5.6-20.7-12.6,9.3-12.6,20.7-12.6S152.3,104.7,152.3,111.7Z" transform="translate(-11.1 -14.3)"/><path class="cls-17" d="M115.8,112.5c0,2.3,1.7,4.4,4.4,5.8l-1.9,3.2v8.1a2,2,0,0,0,2,2,1.9,1.9,0,0,0,1.9-2v-6.4l2-3.5a18.4,18.4,0,0,0,4.1.4c6.9,0,12.4-3.4,12.4-7.6s-5.5-7.7-12.4-7.7S115.8,108.3,115.8,112.5Z" transform="translate(-11.1 -14.3)"/><path class="cls-18" d="M120.2,118.3l-.9-.5c-2.1-1.4-3.5-3.2-3.5-5.3,0-4.2,5.6-7.7,12.5-7.7s12.4,3.5,12.4,7.7-5.5,7.6-12.4,7.6a18.4,18.4,0,0,1-4.1-.4l-2,3.5v6.4a1.9,1.9,0,0,1-1.9,2,2,2,0,0,1-2-2v-8.1l1.9-3.2Zm-3.8,3.3v8a3.9,3.9,0,1,0,7.8,0v-5.9l1-1.8a16.7,16.7,0,0,0,3.1.2,19,19,0,0,0,9.8-2.5c2.6-1.6,4.6-4,4.6-7.1s-2-5.5-4.6-7.1a19,19,0,0,0-9.8-2.5,19.4,19.4,0,0,0-9.9,2.5c-2.5,1.6-4.6,4-4.6,7.1s1.6,4.9,3.7,6.5l-.9,1.5-.2.5v.6Z" transform="translate(-11.1 -14.3)"/><path id="K" class="cls-19" d="M119.7,109.3c0,2.2,2.8,3.9,6.3,3.9s6.2-1.7,6.2-3.9-2.8-4-6.2-4S119.7,107.1,119.7,109.3Z" transform="translate(-11.1 -14.3)"/><path class="cls-19" d="M119.7,107.6h12.5v1.7H119.7Z" transform="translate(-11.1 -14.3)"/><path class="cls-1" d="M119.7,107.6c0,2.2,2.8,3.9,6.3,3.9s6.2-1.7,6.2-3.9-2.8-4-6.2-4S119.7,105.4,119.7,107.6Z" transform="translate(-11.1 -14.3)"/><path class="cls-19" d="M123.6,107.1l1.7-1.1a1.1,1.1,0,0,1,1.3,0l1.7,1.1a.5.5,0,0,1,0,.9l-1.7,1.2a1.5,1.5,0,0,1-1.3,0l-1.7-1.2A.5.5,0,0,1,123.6,107.1Z" transform="translate(-11.1 -14.3)"/><path class="cls-18" d="M120.5,103.1a9.8,9.8,0,0,1,5.5-1.5,9.7,9.7,0,0,1,5.4,1.5,5.4,5.4,0,0,1,2.8,4.5v1.7a5.2,5.2,0,0,1-2.8,4.4,9.7,9.7,0,0,1-5.4,1.5,9.8,9.8,0,0,1-5.5-1.5,5.2,5.2,0,0,1-2.8-4.4v-1.7A5.4,5.4,0,0,1,120.5,103.1Zm5.5.5c-3.5,0-6.3,1.8-6.3,4v1.7c0,2.2,2.8,3.9,6.3,3.9s6.2-1.7,6.2-3.9v-1.7C132.2,105.4,129.4,103.6,126,103.6Z" transform="translate(-11.1 -14.3)"/><circle class="cls-3" cx="123.2" cy="110.5" r="40.3"/></g></svg>