<svg xmlns="http://www.w3.org/2000/svg" width="159.9" height="152" viewBox="0 0 159.9 152"><defs><style>.cls-1{fill:#f0b90b;}.cls-2,.cls-4{fill:#fffdfa;}.cls-3,.cls-5,.cls-6,.cls-8{fill:none;}.cls-3,.cls-5{stroke:#191326;isolation:isolate;}.cls-3,.cls-8{stroke-width:3px;}.cls-3{opacity:0.1;}.cls-4,.cls-9{fill-rule:evenodd;}.cls-5{stroke-width:2.84px;opacity:0.2;}.cls-7{fill:#2d6eb6;}.cls-8{stroke:#000;}.cls-8,.cls-9{stroke-miterlimit:10;}.cls-9{stroke:#fff;}</style></defs><title>dcash-busd</title><g id="BNB"><circle class="cls-1" cx="117.1" cy="109.5" r="42.5"/><path class="cls-2" d="M117.4,126.9l-6.5,6.5-6.6-6.5,6.6-6.6ZM133.2,111l11.2,11.2,6.6-6.5-11.2-11.2L133.2,98l-17.7,17.7,6.6,6.5Zm22.4,9.3-6.5,6.6,6.5,6.5,6.5-6.5Zm-22.4,22.4L122,131.5l-6.5,6.6,17.7,17.7L151,138l-6.6-6.5Zm0-9.3,6.6-6.5-6.6-6.6-6.5,6.6Z" transform="translate(-16.2 -17.4)"/><circle class="cls-3" cx="117.1" cy="109.5" r="40.3"/></g><g id="BUSD"><g id="BUSD-2" data-name="BUSD"><circle class="cls-1" cx="117.3" cy="109.4" r="42.5"/><path class="cls-4" d="M115.4,116l18.1-18.1,7.3,7.2-18.1,18.1Zm.1,21.6,28.9-28.9,7.2,7.2-28.9,29Zm39.7-18.1-28.9,29,7.2,7.2,28.9-28.9-7.2-7.3Zm-50.6,7.3,7.2-7.2,7.3,7.2-7.3,7.2Z" transform="translate(-16.2 -17.4)"/><circle class="cls-5" cx="117.3" cy="109.4" r="41.1"/></g></g><g id="Layer_8" data-name="Layer 8"><polyline class="cls-6" points="0 85 0 0 85 0 85 85"/><path class="cls-7" d="M58.7,20C81,20,99.2,37.9,99.2,59.9S81,99.7,58.7,99.7,18.3,81.9,18.3,59.9,36.4,20,58.7,20" transform="translate(-16.2 -17.4)"/><polyline class="cls-6" points="0 85 0 0 85 0 85 85"/><ellipse class="cls-8" cx="42.5" cy="42.5" rx="40.4" ry="39.8"/><polyline class="cls-6" points="0 85 0 0 85 0 85 85"/><polyline class="cls-6" points="0 85 0 0 85 0 85 85"/><path class="cls-9" d="M89.5,52.7a15.3,15.3,0,0,0-2-5.9,13.4,13.4,0,0,0-4.1-4.1,15,15,0,0,0-5.8-2.1,50.2,50.2,0,0,0-7.3-.5H51.1c-9.6,0-19.1,9.1-20.9,13.2,0,0,12.6-4.9,16.8.7h0c-.6,0-3.6.1-8.6,3s-5.7,10.8-9.3,6.3c0,0-2.5,5.3,5.8,5.3s9,1.2,9.1,1.7h0c-.4.6-9.3,5.1-13.6,3.5,0,0,2.3,9,10.8,9.1l5.9-.2H59.9a63.1,63.1,0,0,0,7.9-.4,24,24,0,0,0,4.9-.9,29.9,29.9,0,0,0,3.8-1.5,24.3,24.3,0,0,0,4.6-3.3,21.5,21.5,0,0,0,3.8-4.5,21.6,21.6,0,0,0,2.9-5.9,26.1,26.1,0,0,0,1.7-6.8A23.5,23.5,0,0,0,89.5,52.7ZM75.8,60.1a22.9,22.9,0,0,1-1.8,6,12.7,12.7,0,0,1-3.4,4.7,11.8,11.8,0,0,1-4.9,2.4,25.2,25.2,0,0,1-5.8.6l-3.7-.2,4.4-24.1c2.2-.2,3.9-.2,5.5-.2a13.8,13.8,0,0,1,6,1,6.2,6.2,0,0,1,3.2,3.5A14.1,14.1,0,0,1,75.8,60.1Z" transform="translate(-16.2 -17.4)"/></g></svg>