<svg xmlns="http://www.w3.org/2000/svg" width="166.1" height="154.1" viewBox="0 0 166.1 154.1"><defs><style>.cls-1{fill:#f5f3f3;}.cls-2{fill:#2f3030;}.cls-3{fill:#100c18;}.cls-4{fill:#828384;}.cls-5{fill:#343535;}.cls-6{opacity:0.1;}.cls-7{fill:#191326;}.cls-10,.cls-7{fill-rule:evenodd;}.cls-8{fill:none;}.cls-9{fill:#efa30c;stroke:#000;stroke-miterlimit:10;stroke-width:4px;}.cls-10{stroke:#fff;stroke-linejoin:round;stroke-width:3px;}</style></defs><title>dcash-eth</title><g id="ETH"><circle class="cls-1" cx="122.7" cy="110.6" r="43.5"/><path class="cls-2" d="M133.8,140.5v15.1l18.6-26.2Z" transform="translate(-11.1 -14.4)"/><path class="cls-3" d="M133.8,117.1v19.5l18.6-11Z" transform="translate(-11.1 -14.4)"/><path class="cls-2" d="M133.8,94.6v22.5l18.6,8.5Z" transform="translate(-11.1 -14.4)"/><path class="cls-4" d="M133.8,140.5v15.1l-18.7-26.2Z" transform="translate(-11.1 -14.4)"/><path class="cls-5" d="M133.8,117.1v19.5l-18.7-11Z" transform="translate(-11.1 -14.4)"/><path class="cls-4" d="M133.8,94.6v22.5l-18.7,8.5Z" transform="translate(-11.1 -14.4)"/><g class="cls-6"><path class="cls-7" d="M133.8,164.1a39,39,0,1,0-39-39A39,39,0,0,0,133.8,164.1Zm0,4.5a43.5,43.5,0,1,0-43.5-43.5A43.4,43.4,0,0,0,133.8,168.6Z" transform="translate(-11.1 -14.4)"/></g></g><g id="DCASH"><polyline class="cls-8" points="0 85 0 0 85 0 85 85"/><path class="cls-9" d="M53.6,17.1C75.9,17.1,94.1,35,94.1,57S75.9,96.8,53.6,96.8,13.2,79,13.2,57,31.3,17.1,53.6,17.1" transform="translate(-11.1 -14.4)"/><polyline class="cls-8" points="0 85 0 0 85 0 85 85"/><polyline class="cls-8" points="0 85 0 0 85 0 85 85"/><path class="cls-10" d="M84,49.8a14.2,14.2,0,0,0-1.9-5.7,12.4,12.4,0,0,0-4-3.9,13.5,13.5,0,0,0-5.5-2,37.6,37.6,0,0,0-7.1-.5H47.2c-15,0-13.8,3.2-21.7,8.4,0,0,12.4-1.8,16.4,3.7,0,0-4.2-.5-9.5,2.6s-7.2,3.5-12.5,1.3c0,0,5,8.9,13,8.9s6.6,2.4,6.6,2.8-6.8,8.2-17.3,1c0,0,3.9,12,15.3,12.7H55.6c2.7,0,5.3-.2,7.5-.4a22.9,22.9,0,0,0,4.8-.9,13.8,13.8,0,0,0,3.6-1.5,16.7,16.7,0,0,0,4.4-3.1,19.5,19.5,0,0,0,3.7-4.3,25.2,25.2,0,0,0,2.8-5.7,35.5,35.5,0,0,0,1.7-6.6A25.1,25.1,0,0,0,84,49.8ZM70.8,57a20.6,20.6,0,0,1-1.7,5.7,11.7,11.7,0,0,1-3.3,4.5,11.1,11.1,0,0,1-4.7,2.4,30.6,30.6,0,0,1-5.6.5,20,20,0,0,1-3.5-.2l4.2-23.2,5.3-.2a14.8,14.8,0,0,1,5.8,1,6,6,0,0,1,3,3.4A12,12,0,0,1,70.8,57Z" transform="translate(-11.1 -14.4)"/></g></svg>