<svg xmlns="http://www.w3.org/2000/svg" xmlns:xlink="http://www.w3.org/1999/xlink" width="164.7" height="154.9" viewBox="0 0 164.7 154.9"><defs><style>.cls-1{fill:url(#linear-gradient);}.cls-2{fill:#606063;}.cls-15,.cls-2,.cls-5,.cls-8,.cls-9{fill-rule:evenodd;}.cls-3{fill:#bebebe;}.cls-4{fill:#f5f3f3;}.cls-5{fill:#612f01;}.cls-6{fill:#fedc90;}.cls-7{fill:#d1884f;}.cls-8{fill:url(#linear-gradient-2);}.cls-9{fill:#633001;}.cls-10{fill:#9e7200;}.cls-11{fill:#f0b90b;}.cls-12,.cls-13{fill:none;}.cls-12{stroke:#191326;opacity:0.1;isolation:isolate;}.cls-12,.cls-15{stroke-width:3px;}.cls-14{fill:#efa30c;stroke:#000;stroke-miterlimit:10;stroke-width:4px;}.cls-15{stroke:#fff;stroke-linejoin:round;}</style><linearGradient id="linear-gradient" x1="133.31" y1="95.64" x2="133.31" y2="10.64" gradientTransform="matrix(1, 0, 0, -1, -11.1, 165.56)" gradientUnits="userSpaceOnUse"><stop offset="0" stop-color="#54dade"/><stop offset="0.76" stop-color="#24c7d6"/></linearGradient><linearGradient id="linear-gradient-2" x1="127.28" y1="72.91" x2="127.28" y2="46.63" gradientTransform="matrix(1, 0, 0, -1, 0, 180)" gradientUnits="userSpaceOnUse"><stop offset="0" stop-color="#9f4a08"/><stop offset="0.37" stop-color="#7d3900"/><stop offset="1" stop-color="#8d4104"/></linearGradient></defs><title>dcash-cake</title><g id="CAKE"><circle class="cls-1" cx="122.2" cy="112.4" r="42.5"/><path class="cls-2" d="M105.7,131.5v.5a10.9,10.9,0,0,0,.1,1.8h-.1v.9a6.6,6.6,0,0,0,.1,1.4c1.1,8.6,13,15.4,27.5,15.4s26.4-6.8,27.5-15.4a6.6,6.6,0,0,0,.1-1.4v-.9h-.1a10.9,10.9,0,0,0,.1-1.8v-.5c-.4-9-12.6-16.3-27.6-16.3s-27.2,7.3-27.6,16.3Zm-2.3,0c.2-5.5,4-10.1,9.2-13.3s12.7-5.2,20.7-5.2,15.3,1.9,20.7,5.2,9,7.8,9.2,13.3h0v3.2c0,5.7-3.8,10.6-9.2,13.8s-12.7,5.3-20.7,5.3-15.3-2-20.7-5.3-9.2-8.1-9.2-13.8v-3.2Z" transform="translate(-11.1 -14.4)"/><path class="cls-3" d="M160.9,134.7c0,9.3-12.3,16.8-27.6,16.8s-27.6-7.5-27.6-16.8v-2.6h55.2v2.6Z" transform="translate(-11.1 -14.4)"/><path class="cls-4" d="M160.9,132c0,9.3-12.3,16.8-27.6,16.8s-27.6-7.5-27.6-16.8,12.4-16.8,27.6-16.8,27.6,7.5,27.6,16.8Z" transform="translate(-11.1 -14.4)"/><path id="H" class="cls-5" d="M109.9,127.3h0a5.4,5.4,0,0,0,.4,2.2h-.4v1c0,.4.1.9.1,1.3,1.1,6.4,9.9,11.4,20.6,11.4s19.5-5,20.6-11.4a5.7,5.7,0,0,0,.1-1.3v-1H151a7.6,7.6,0,0,0,.3-2.1h0c0-7-9.3-12.6-20.7-12.6S110,120.3,109.9,127.3Zm-2.2,0h0v3.2c0,4.6,3,8.4,7.1,10.9a31.4,31.4,0,0,0,15.8,4,30.8,30.8,0,0,0,15.8-4c4.1-2.5,7.2-6.3,7.2-10.9v-3.2c0-4.6-3.1-8.4-7.2-10.9a30.8,30.8,0,0,0-15.8-4,31.4,31.4,0,0,0-15.8,4C110.7,118.9,107.7,122.7,107.7,127.3Z" transform="translate(-11.1 -14.4)"/><path id="I" class="cls-6" d="M151.3,130.5c0,7-9.3,12.7-20.7,12.7s-20.7-5.7-20.7-12.7v-3h41.4Z" transform="translate(-11.1 -14.4)"/><path id="J" class="cls-7" d="M151.3,127.3c0,7-9.3,12.6-20.7,12.6s-20.7-5.6-20.7-12.6,9.3-12.6,20.7-12.6S151.3,120.3,151.3,127.3Z" transform="translate(-11.1 -14.4)"/><path class="cls-5" d="M116.2,120.5h0a7.8,7.8,0,0,0,.3,2.2h-.3v1a5.7,5.7,0,0,0,.1,1.3c1,6.4,9.8,11.4,20.6,11.4s19.5-5,20.5-11.4a5.7,5.7,0,0,0,.1-1.3v-1h-.3a7.6,7.6,0,0,0,.3-2.1h0c0-7-9.2-12.6-20.6-12.6S116.2,113.5,116.2,120.5Zm-2.3,0h0v3.2c0,4.6,3,8.4,7.1,10.9a33.4,33.4,0,0,0,31.7,0c4.1-2.5,7.1-6.3,7.1-10.9v-3.2c0-4.6-3-8.4-7.1-10.9a33.4,33.4,0,0,0-31.7,0C116.9,112.1,113.9,115.9,113.9,120.5Z" transform="translate(-11.1 -14.4)"/><path class="cls-6" d="M157.5,123.7c0,7-9.2,12.7-20.7,12.7s-20.6-5.7-20.6-12.7v-2.9h41.3Z" transform="translate(-11.1 -14.4)"/><path class="cls-7" d="M157.5,120.5c0,7-9.2,12.6-20.7,12.6s-20.6-5.6-20.6-12.6,9.2-12.6,20.6-12.6S157.5,113.5,157.5,120.5Z" transform="translate(-11.1 -14.4)"/><path class="cls-5" d="M109.9,113.7h0a5.4,5.4,0,0,0,.4,2.2h-.4v1c0,.4.1.9.1,1.3,1.1,6.4,9.9,11.4,20.6,11.4s19.5-5,20.6-11.4a5.7,5.7,0,0,0,.1-1.3v-1H151a7.6,7.6,0,0,0,.3-2.1h0c0-7-9.3-12.6-20.7-12.6S110,106.7,109.9,113.7Zm-2.2,0h0v3.2c0,4.6,3,8.4,7.1,10.9a31.4,31.4,0,0,0,15.8,4,30.8,30.8,0,0,0,15.8-4c4.1-2.5,7.2-6.3,7.2-10.9v-3.2c0-4.6-3.1-8.4-7.2-10.9a30.8,30.8,0,0,0-15.8-4,31.4,31.4,0,0,0-15.8,4C110.7,105.3,107.7,109.1,107.7,113.7Z" transform="translate(-11.1 -14.4)"/><path class="cls-6" d="M151.3,116.9c0,7-9.3,12.7-20.7,12.7s-20.7-5.7-20.7-12.7V114h41.4Z" transform="translate(-11.1 -14.4)"/><path class="cls-7" d="M151.3,113.7c0,7-9.3,12.6-20.7,12.6s-20.7-5.6-20.7-12.6,9.3-12.6,20.7-12.6S151.3,106.7,151.3,113.7Z" transform="translate(-11.1 -14.4)"/><path class="cls-8" d="M114.8,114.5c0,2.3,1.7,4.4,4.4,5.8l-1.9,3.2v8.1a2,2,0,0,0,2,2,1.9,1.9,0,0,0,1.9-2v-6.4l2-3.5a18.4,18.4,0,0,0,4.1.4c6.9,0,12.4-3.4,12.4-7.6s-5.5-7.7-12.4-7.7S114.8,110.3,114.8,114.5Z" transform="translate(-11.1 -14.4)"/><path class="cls-9" d="M119.2,120.3l-.9-.5c-2.1-1.4-3.5-3.2-3.5-5.3,0-4.2,5.6-7.7,12.5-7.7s12.4,3.5,12.4,7.7-5.5,7.6-12.4,7.6a18.4,18.4,0,0,1-4.1-.4l-2,3.5v6.4a1.9,1.9,0,0,1-1.9,2,2,2,0,0,1-2-2v-8.1l1.9-3.2Zm-3.8,3.3v8a3.9,3.9,0,1,0,7.8,0v-5.9l1-1.8a16.7,16.7,0,0,0,3.1.2,19,19,0,0,0,9.8-2.5c2.6-1.6,4.6-4,4.6-7.1s-2-5.5-4.6-7.1a19,19,0,0,0-9.8-2.5,19.4,19.4,0,0,0-9.9,2.5c-2.5,1.6-4.6,4-4.6,7.1s1.6,4.9,3.7,6.5l-.9,1.5-.2.5v.6Z" transform="translate(-11.1 -14.4)"/><path id="K" class="cls-10" d="M118.7,111.3c0,2.2,2.8,3.9,6.3,3.9s6.2-1.7,6.2-3.9-2.8-4-6.2-4S118.7,109.1,118.7,111.3Z" transform="translate(-11.1 -14.4)"/><path class="cls-10" d="M118.7,109.6h12.5v1.7H118.7Z" transform="translate(-11.1 -14.4)"/><path class="cls-11" d="M118.7,109.6c0,2.2,2.8,3.9,6.3,3.9s6.2-1.7,6.2-3.9-2.8-4-6.2-4S118.7,107.4,118.7,109.6Z" transform="translate(-11.1 -14.4)"/><path class="cls-10" d="M122.6,109.1l1.7-1.1a1.1,1.1,0,0,1,1.3,0l1.7,1.1a.5.5,0,0,1,0,.9l-1.7,1.2a1.5,1.5,0,0,1-1.3,0l-1.7-1.2A.5.5,0,0,1,122.6,109.1Z" transform="translate(-11.1 -14.4)"/><path class="cls-9" d="M119.5,105.1a9.8,9.8,0,0,1,5.5-1.5,9.7,9.7,0,0,1,5.4,1.5,5.4,5.4,0,0,1,2.8,4.5v1.7a5.2,5.2,0,0,1-2.8,4.4,9.7,9.7,0,0,1-5.4,1.5,9.8,9.8,0,0,1-5.5-1.5,5.2,5.2,0,0,1-2.8-4.4v-1.7A5.4,5.4,0,0,1,119.5,105.1Zm5.5.5c-3.5,0-6.3,1.8-6.3,4v1.7c0,2.2,2.8,3.9,6.3,3.9s6.2-1.7,6.2-3.9v-1.7C131.2,107.4,128.4,105.6,125,105.6Z" transform="translate(-11.1 -14.4)"/><circle class="cls-12" cx="122.2" cy="112.4" r="40.3"/></g><g id="DCASH"><polyline class="cls-13" points="0 85 0 0 85 0 85 85"/><path class="cls-14" d="M53.6,17.1C75.9,17.1,94.1,35,94.1,57S75.9,96.8,53.6,96.8,13.2,79,13.2,57,31.3,17.1,53.6,17.1" transform="translate(-11.1 -14.4)"/><polyline class="cls-13" points="0 85 0 0 85 0 85 85"/><polyline class="cls-13" points="0 85 0 0 85 0 85 85"/><path class="cls-15" d="M84,49.8a14.2,14.2,0,0,0-1.9-5.7,12.4,12.4,0,0,0-4-3.9,13.5,13.5,0,0,0-5.5-2,37.6,37.6,0,0,0-7.1-.5H47.2c-15,0-13.8,3.2-21.7,8.4,0,0,12.4-1.8,16.4,3.7,0,0-4.2-.5-9.5,2.6s-7.2,3.5-12.5,1.3c0,0,5,8.9,13,8.9s6.6,2.4,6.6,2.8-6.8,8.2-17.3,1c0,0,3.9,12,15.3,12.7H55.6c2.7,0,5.3-.2,7.5-.4a22.9,22.9,0,0,0,4.8-.9,13.8,13.8,0,0,0,3.6-1.5,16.7,16.7,0,0,0,4.4-3.1,19.5,19.5,0,0,0,3.7-4.3,25.2,25.2,0,0,0,2.8-5.7,35.5,35.5,0,0,0,1.7-6.6A25.1,25.1,0,0,0,84,49.8ZM70.8,57a20.6,20.6,0,0,1-1.7,5.7,11.7,11.7,0,0,1-3.3,4.5,11.1,11.1,0,0,1-4.7,2.4,30.6,30.6,0,0,1-5.6.5,20,20,0,0,1-3.5-.2l4.2-23.2,5.3-.2a14.8,14.8,0,0,1,5.8,1,6,6,0,0,1,3,3.4A12,12,0,0,1,70.8,57Z" transform="translate(-11.1 -14.4)"/></g></svg>