<?xml version="1.0" encoding="utf-8"?>
<!-- Generator: Adobe Illustrator 23.0.1, SVG Export Plug-In . SVG Version: 6.00 Build 0)  -->
<svg version="1.1" id="Layer_1" xmlns="http://www.w3.org/2000/svg" xmlns:xlink="http://www.w3.org/1999/xlink" x="0px" y="0px"
	 viewBox="0 0 205 208" style="enable-background:new 0 0 205 208;" xml:space="preserve">
<style type="text/css">
	.st0{clip-path:url(#SVGID_2_);fill:#F0B90B;}
	.st1{clip-path:url(#SVGID_2_);fill:none;stroke:#000000;stroke-width:9;stroke-miterlimit:10;}
	.st2{clip-path:url(#SVGID_2_);}
	.st3{clip-path:url(#SVGID_2_);fill-rule:evenodd;clip-rule:evenodd;}
</style>
<g>
	<defs>
		<rect id="SVGID_1_" width="205" height="208"/>
	</defs>
	<clipPath id="SVGID_2_">
		<use xlink:href="#SVGID_1_"  style="overflow:visible;"/>
	</clipPath>
	<path class="st0" d="M102.6,6.6c53.8,0,97.5,43.7,97.5,97.5c0,53.8-43.7,97.5-97.5,97.5S5.1,157.9,5.1,104.1
		C5.1,50.3,48.8,6.6,102.6,6.6"/>
	<circle class="st1" cx="102.6" cy="104.1" r="97.5"/>
	<path class="st2" d="M60.4,160.8c2.7-11.7,4.7-21,6.1-28c2-10.4,4.4-23.9,7.3-40.5c2.2-12.7,3.6-21.7,4.3-27.2l1.2-9
		c6,0.2,11.1,0.2,15.4,0.2c4.2,0,9.7-0.1,16.5-0.3c6.8-0.2,13.2-0.3,19.2-0.3c6.8,0,12.8,0.4,17.8,1.2c5,0.8,9.6,2.5,13.8,5.1
		c4.1,2.6,7.4,5.9,9.9,10c2.5,4.1,4.1,9,4.9,14.5c0.8,5.5,0.9,11.3,0.1,17.1c-0.8,5.8-2.1,11.3-4.1,16.7c-1.9,5.3-4.3,10.2-7.1,14.4
		c-2.8,4.3-5.8,8-9.2,11.1c-3.4,3.1-7.1,5.7-11.1,7.9c-3,1.6-6,2.9-9,3.8c-3,0.9-7,1.7-12,2.2c-5.6,0.6-11.9,0.9-18.9,0.9l-30.9-0.2
		C71.6,160.6,66.9,160.6,60.4,160.8 M96.6,137.7c2.8,0.3,5.7,0.4,8.8,0.4c5.2,0,9.9-0.5,14.1-1.4c4.2-0.9,8.1-2.9,11.6-5.9
		c3.5-3,6.3-6.9,8.4-11.6c2.1-4.7,3.5-9.6,4.2-14.5c0.8-6.1,0.4-11.2-1.2-15.4c-1.6-4.2-4.2-7.1-7.6-8.7c-3.4-1.6-8.3-2.5-14.6-2.5
		c-3.7,0-8,0.2-13.1,0.5L96.6,137.7z"/>
	<path class="st3" d="M120.2,55.6h-36C61.1,55.6,38.1,78,33.7,88c0,0,30.7-12.1,40.7,2c0,0-9.7-2-22.8,6s-26.2,24-34.7,13
		c0,0,4,15,24,15s26.3,5,26.2,6c-0.1,1-24,22-34.4,18c0,0,7.1,12.6,27.7,12.8C80.9,161,92.6,89,92.6,89L120.2,55.6z"/>
</g>
</svg>
