<?xml version="1.0" encoding="utf-8"?>
<!-- Generator: Adobe Illustrator 23.0.1, SVG Export Plug-In . SVG Version: 6.00 Build 0)  -->
<svg version="1.1" id="Layer_1" xmlns="http://www.w3.org/2000/svg" xmlns:xlink="http://www.w3.org/1999/xlink" x="0px" y="0px"
	 viewBox="0 0 581.1 687.8" style="enable-background:new 0 0 581.1 687.8;" xml:space="preserve">
<style type="text/css">
	.st0{clip-path:url(#SVGID_2_);fill:#C5CFD1;}
	.st1{clip-path:url(#SVGID_2_);fill:none;stroke:#000000;stroke-width:6;stroke-miterlimit:10;}
	.st2{clip-path:url(#SVGID_4_);fill:url(#SVGID_5_);}
	.st3{clip-path:url(#SVGID_7_);fill:none;stroke:#000000;stroke-width:5;stroke-miterlimit:10;}
	.st4{clip-path:url(#SVGID_9_);fill:url(#SVGID_10_);}
	.st5{clip-path:url(#SVGID_12_);fill:url(#SVGID_13_);}
	.st6{clip-path:url(#SVGID_15_);fill:none;stroke:#000000;stroke-width:5;stroke-miterlimit:10;}
	.st7{clip-path:url(#SVGID_17_);fill:url(#SVGID_18_);}
	.st8{clip-path:url(#SVGID_20_);fill:url(#SVGID_21_);}
	.st9{clip-path:url(#SVGID_23_);fill:none;stroke:#000000;stroke-width:5;stroke-miterlimit:10;}
	.st10{clip-path:url(#SVGID_25_);fill:url(#SVGID_26_);}
	.st11{clip-path:url(#SVGID_28_);fill:url(#SVGID_29_);}
	.st12{clip-path:url(#SVGID_31_);fill:none;stroke:#000000;stroke-width:5;stroke-miterlimit:10;}
	.st13{clip-path:url(#SVGID_33_);fill:url(#SVGID_34_);}
	.st14{clip-path:url(#SVGID_36_);fill:url(#SVGID_37_);}
	.st15{clip-path:url(#SVGID_39_);fill:none;stroke:#000000;stroke-width:5;stroke-miterlimit:10;}
	.st16{clip-path:url(#SVGID_41_);fill:url(#SVGID_42_);}
	.st17{clip-path:url(#SVGID_44_);fill:#9FC4AD;}
	.st18{clip-path:url(#SVGID_44_);}
	.st19{clip-path:url(#SVGID_44_);fill:#342D22;}
	.st20{clip-path:url(#SVGID_44_);fill:#FFFFFF;}
	.st21{clip-path:url(#SVGID_44_);fill:none;stroke:#000000;stroke-width:5;stroke-miterlimit:10;}
	.st22{clip-path:url(#SVGID_46_);fill:url(#SVGID_47_);}
	.st23{clip-path:url(#SVGID_49_);fill:url(#SVGID_50_);}
	.st24{clip-path:url(#SVGID_52_);fill:url(#SVGID_53_);}
	.st25{clip-path:url(#SVGID_55_);fill:url(#SVGID_56_);}
	.st26{clip-path:url(#SVGID_58_);fill:none;stroke:#000000;stroke-width:5;stroke-miterlimit:10;}
	.st27{clip-path:url(#SVGID_60_);}
	.st28{clip-path:url(#SVGID_64_);fill:none;stroke:#000000;stroke-width:5;stroke-miterlimit:10;}
	.st29{clip-path:url(#SVGID_66_);fill:url(#SVGID_67_);}
	.st30{clip-path:url(#SVGID_69_);fill:none;stroke:#000000;stroke-width:5;stroke-miterlimit:10;}
	.st31{clip-path:url(#SVGID_71_);fill:url(#SVGID_72_);}
	.st32{clip-path:url(#SVGID_74_);fill:none;stroke:#000000;stroke-width:5;stroke-miterlimit:10;}
	.st33{clip-path:url(#SVGID_76_);fill:url(#SVGID_77_);}
	.st34{clip-path:url(#SVGID_79_);}
	.st35{clip-path:url(#SVGID_81_);fill:url(#SVGID_82_);}
	.st36{clip-path:url(#SVGID_84_);}
	.st37{clip-path:url(#SVGID_86_);fill:url(#SVGID_87_);}
	.st38{clip-path:url(#SVGID_89_);fill:url(#SVGID_90_);}
	.st39{clip-path:url(#SVGID_92_);fill:url(#SVGID_93_);}
	.st40{clip-path:url(#SVGID_95_);}
	.st41{clip-path:url(#SVGID_97_);fill:url(#SVGID_98_);}
	.st42{clip-path:url(#SVGID_100_);}
	.st43{clip-path:url(#SVGID_102_);fill:url(#SVGID_103_);}
	.st44{clip-path:url(#SVGID_105_);}
	.st45{clip-path:url(#SVGID_107_);fill:url(#SVGID_108_);}
	.st46{clip-path:url(#SVGID_110_);}
	.st47{clip-path:url(#SVGID_112_);fill:url(#SVGID_113_);}
	.st48{clip-path:url(#SVGID_115_);fill:url(#SVGID_116_);}
	.st49{clip-path:url(#SVGID_118_);fill:url(#SVGID_119_);}
	.st50{clip-path:url(#SVGID_121_);}
</style>
<g>
	<defs>
		<rect id="SVGID_1_" x="-1069.3" y="-196.1" width="1920" height="1080"/>
	</defs>
	<clipPath id="SVGID_2_">
		<use xlink:href="#SVGID_1_"  style="overflow:visible;"/>
	</clipPath>
	<path class="st0" d="M376.3,618.5c-23.2,11.7-46.5,22.7-73.5,22.9c-16.7,0.1-33.7-3.3-49.7-8c-13.7-4-33.8-9.9-40.6-23.9
		c-0.3-0.6-0.6-1.1-0.9-1.5c0.3-1.2,0.7-2.4,1-3.7c12.6-11.9,36.2-39.5,40.1-83c0,0-45.7,36.1-64.2,10.4l-10,0.2
		c-6.9,0.2-21.8-6.7-26.8-11.5c-9.7-9.4-16.3-21.4-16-33.9c0.5-18.5,1.8-23.5,1.8-23.5l-18.1-1.8l2.7-23l-12.2-2.7l5-17.6l6.8-7.3
		l-1.4-8.5c0,0-57.9-7.4-83.6-86l34,0.6c0,0,0.5-33.4,13.7-51.7c0,0,4.1,47.7,7.4,52.1l27.8,0.7c0,0-7.5-54.2,5.8-90.8l11.9,35.9
		c0,0,5.8-112.4,24.4-121.6l9.8,47.1c0,0,14.2-111.4,67-146.3c0,0-25,120.9-6.1,195.4c0,0,10.8-4.4,14.6-37.2l13.5,33.2
		c0,0,37.6-24.4,40.6-119.5c0,0,22.3,34.5,28.4,85c0,0,67.7-21.7,82.6-173c0,0,62.1,127.9-22.8,264.2l12.6-3.5
		c0,0,45.1-21.8,51.5-100.8c0,0,20.3,47.9,0,100.2c0,0,88.5,1.4,103.4,30.3c0,0-42.1,55.4-56.5,54.4c2.9,1,8.4,3.4,14.5,8.3
		c0,0-29.8,32.1-78.6,36.6c0,0,9.5,22.1,8.1,33.9c0,0-34.8-27.5-47.9-28.4l-0.5,9c0,0,18.1,21.7,20.8,39.3c0,0-12.2-19-29.8-14
		c0,0,24.8,61-7.2,152.2L376.3,618.5z"/>
	<path class="st1" d="M376.3,618.5c-23.2,11.7-46.5,22.7-73.5,22.9c-16.7,0.1-33.7-3.3-49.7-8c-13.7-4-33.8-9.9-40.6-23.9
		c-0.3-0.6-0.6-1.1-0.9-1.5c0.3-1.2,0.7-2.4,1-3.7c12.6-11.9,36.2-39.5,40.1-83c0,0-45.7,36.1-64.2,10.4l-10,0.2
		c-6.9,0.2-21.8-6.7-26.8-11.5c-9.7-9.4-16.3-21.4-16-33.9c0.5-18.5,1.8-23.5,1.8-23.5l-18.1-1.8l2.7-23l-12.2-2.7l5-17.6l6.8-7.3
		l-1.4-8.5c0,0-57.9-7.4-83.6-86l34,0.6c0,0,0.5-33.4,13.7-51.7c0,0,4.1,47.7,7.4,52.1l27.8,0.7c0,0-7.5-54.2,5.8-90.8l11.9,35.9
		c0,0,5.8-112.4,24.4-121.6l9.8,47.1c0,0,14.2-111.4,67-146.3c0,0-25,120.9-6.1,195.4c0,0,10.8-4.4,14.6-37.2l13.5,33.2
		c0,0,37.6-24.4,40.6-119.5c0,0,22.3,34.5,28.4,85c0,0,67.7-21.7,82.6-173c0,0,62.1,127.9-22.8,264.2l12.6-3.5
		c0,0,45.1-21.8,51.5-100.8c0,0,20.3,47.9,0,100.2c0,0,88.5,1.4,103.4,30.3c0,0-42.1,55.4-56.5,54.4c2.9,1,8.4,3.4,14.5,8.3
		c0,0-29.8,32.1-78.6,36.6c0,0,9.5,22.1,8.1,33.9c0,0-34.8-27.5-47.9-28.4l-0.5,9c0,0,18.1,21.7,20.8,39.3c0,0-12.2-19-29.8-14
		c0,0,24.8,61-7.2,152.2L376.3,618.5z"/>
</g>
<g>
	<defs>
		<path id="SVGID_3_" d="M329.5,198.9c-77,37-41.8,112.9-41.8,112.9s85.3-1.8,101.6-21.7c7.5-9.2,25.2-38.1,36.1-84.3
			c12.7-53.3,16.5-127.3-13.3-179.9C412.1,25.9,406.4,161.9,329.5,198.9"/>
	</defs>
	<clipPath id="SVGID_4_">
		<use xlink:href="#SVGID_3_"  style="overflow:visible;"/>
	</clipPath>
	
		<linearGradient id="SVGID_5_" gradientUnits="userSpaceOnUse" x1="-1069.2766" y1="883.9094" x2="-1068.2766" y2="883.9094" gradientTransform="matrix(122.2758 32.7637 32.7637 -122.2758 102093.7656 143272.3125)">
		<stop  offset="0" style="stop-color:#980563"/>
		<stop  offset="0.1397" style="stop-color:#980563"/>
		<stop  offset="0.7263" style="stop-color:#662D91"/>
		<stop  offset="1" style="stop-color:#662D91"/>
	</linearGradient>
	<polygon class="st2" points="265.2,-21.5 513.4,45.1 429.3,359.2 181,292.7 	"/>
</g>
<g>
	<defs>
		<rect id="SVGID_6_" x="-1069.3" y="-196.1" width="1920" height="1080"/>
	</defs>
	<clipPath id="SVGID_7_">
		<use xlink:href="#SVGID_6_"  style="overflow:visible;"/>
	</clipPath>
	<path class="st3" d="M412.1,25.9c0,0-5.6,136-82.6,173c-77,37-41.8,112.9-41.8,112.9s85.3-1.8,101.6-21.7
		c7.5-9.2,25.2-38.1,36.1-84.3C438.1,152.5,442,78.6,412.1,25.9z"/>
</g>
<g>
	<defs>
		<path id="SVGID_8_" d="M337.8,205.4c-9.2,5.2-16.4,10.8-22,16.6l-12.8,72c0,0,54.7-4.5,67.8-23.2c6.1-8.7,38.1-34.7,46.9-78.3
			c10.1-50.3,8.7-107.5-4.2-153.7C413.5,38.8,399.5,170.4,337.8,205.4"/>
	</defs>
	<clipPath id="SVGID_9_">
		<use xlink:href="#SVGID_8_"  style="overflow:visible;"/>
	</clipPath>
	
		<linearGradient id="SVGID_10_" gradientUnits="userSpaceOnUse" x1="-1069.2766" y1="883.9562" x2="-1068.2766" y2="883.9562" gradientTransform="matrix(74.9704 43.2842 43.2842 -74.9704 42249.0195 112708.5859)">
		<stop  offset="0" style="stop-color:#682E92"/>
		<stop  offset="7.541900e-02" style="stop-color:#682E92"/>
		<stop  offset="0.1191" style="stop-color:#7E45A1"/>
		<stop  offset="0.2101" style="stop-color:#B77FC6"/>
		<stop  offset="0.2598" style="stop-color:#D9A1DC"/>
		<stop  offset="0.4173" style="stop-color:#C670CA"/>
		<stop  offset="0.4832" style="stop-color:#BD5AC2"/>
		<stop  offset="0.61" style="stop-color:#A44CB4"/>
		<stop  offset="0.7545" style="stop-color:#8D3FA7"/>
		<stop  offset="0.8464" style="stop-color:#853AA2"/>
		<stop  offset="1" style="stop-color:#662D91"/>
	</linearGradient>
	<polygon class="st4" points="334.2,-15.3 538.3,102.6 396.6,348 192.5,230.1 	"/>
</g>
<g>
	<defs>
		<path id="SVGID_11_" d="M172.1,203.5c-6.3,121.5,8.6,108.4,8.6,108.4l50.7-55.5l3-18.7c0,0-25.5-67.7,4-195.4
			C238.4,42.2,178.4,82,172.1,203.5"/>
	</defs>
	<clipPath id="SVGID_12_">
		<use xlink:href="#SVGID_11_"  style="overflow:visible;"/>
	</clipPath>
	
		<linearGradient id="SVGID_13_" gradientUnits="userSpaceOnUse" x1="-1069.2766" y1="883.8214" x2="-1068.2766" y2="883.8214" gradientTransform="matrix(67.8198 0 0 -67.8198 72688.7344 60124.1641)">
		<stop  offset="0" style="stop-color:#980563"/>
		<stop  offset="0.1397" style="stop-color:#980563"/>
		<stop  offset="0.6397" style="stop-color:#662D91"/>
		<stop  offset="0.6899" style="stop-color:#662D91"/>
		<stop  offset="1" style="stop-color:#662D91"/>
	</linearGradient>
	<rect x="165.8" y="42.2" class="st5" width="72.6" height="282.8"/>
</g>
<g>
	<defs>
		<rect id="SVGID_14_" x="-1069.3" y="-196.1" width="1920" height="1080"/>
	</defs>
	<clipPath id="SVGID_15_">
		<use xlink:href="#SVGID_14_"  style="overflow:visible;"/>
	</clipPath>
	<path class="st6" d="M234.4,237.5c0,0-25.5-67.7,4-195.4c0,0-59.9,39.8-66.3,161.3c-6.3,121.5,8.6,108.4,8.6,108.4l50.7-55.5
		L234.4,237.5z"/>
</g>
<g>
	<defs>
		<path id="SVGID_16_" d="M174,206.8c-1.2,111.1,6.7,99.1,6.7,99.1l35.1-50.8l2.1-17.1c0,0-12.4-64.6,8-181.3
			C225.8,56.7,175.1,99.3,174,206.8"/>
	</defs>
	<clipPath id="SVGID_17_">
		<use xlink:href="#SVGID_16_"  style="overflow:visible;"/>
	</clipPath>
	
		<linearGradient id="SVGID_18_" gradientUnits="userSpaceOnUse" x1="-1069.2766" y1="883.8029" x2="-1068.2766" y2="883.8029" gradientTransform="matrix(51.9459 0 0 -51.9459 55718.3711 46097.2813)">
		<stop  offset="0" style="stop-color:#FFFFFF"/>
		<stop  offset="7.871584e-02" style="stop-color:#EED4EF"/>
		<stop  offset="0.1701" style="stop-color:#DCA8DF"/>
		<stop  offset="0.2587" style="stop-color:#CF86D2"/>
		<stop  offset="0.3425" style="stop-color:#C56EC9"/>
		<stop  offset="0.4195" style="stop-color:#BF5FC4"/>
		<stop  offset="0.4832" style="stop-color:#BD5AC2"/>
		<stop  offset="0.61" style="stop-color:#A44CB4"/>
		<stop  offset="0.7545" style="stop-color:#8D3FA7"/>
		<stop  offset="0.8464" style="stop-color:#853AA2"/>
		<stop  offset="1" style="stop-color:#662D91"/>
	</linearGradient>
	<rect x="172.7" y="56.7" class="st7" width="53" height="261.2"/>
</g>
<g>
	<defs>
		<path id="SVGID_19_" d="M260.4,233.5l-17.8,105.4c0,0,68.6-21.7,84.4-88.5c0,0,14.4-76.5-26-136.5
			C301,113.9,303.5,195.2,260.4,233.5"/>
	</defs>
	<clipPath id="SVGID_20_">
		<use xlink:href="#SVGID_19_"  style="overflow:visible;"/>
	</clipPath>
	
		<linearGradient id="SVGID_21_" gradientUnits="userSpaceOnUse" x1="-1069.2766" y1="884.0208" x2="-1068.2766" y2="884.0208" gradientTransform="matrix(82.642 47.7134 47.7134 -82.642 46437.6211 124278.3281)">
		<stop  offset="0" style="stop-color:#0D7EC6"/>
		<stop  offset="0.132" style="stop-color:#2394D6"/>
		<stop  offset="0.4062" style="stop-color:#5BCDFE"/>
		<stop  offset="0.4106" style="stop-color:#5CCEFF"/>
		<stop  offset="0.4943" style="stop-color:#4CBEF3"/>
		<stop  offset="0.8687" style="stop-color:#0677C0"/>
		<stop  offset="1" style="stop-color:#0071BC"/>
	</linearGradient>
	<polygon class="st8" points="267.3,71.1 438.8,170.2 316.7,381.7 145.1,282.7 	"/>
</g>
<g>
	<defs>
		<rect id="SVGID_22_" x="-1069.3" y="-196.1" width="1920" height="1080"/>
	</defs>
	<clipPath id="SVGID_23_">
		<use xlink:href="#SVGID_22_"  style="overflow:visible;"/>
	</clipPath>
	<path class="st9" d="M242.6,338.9c0,0,68.6-21.7,84.4-88.5c0,0,14.4-76.5-26-136.5c0,0,2.4,81.3-40.6,119.5L242.6,338.9z"/>
</g>
<g>
	<defs>
		<path id="SVGID_24_" d="M268.7,247.9l-9.8,69.7c0,0,46.6-17.7,57.3-72.3c0,0,15.9-46.3-11.5-95.3
			C304.7,149.9,297.9,216.6,268.7,247.9"/>
	</defs>
	<clipPath id="SVGID_25_">
		<use xlink:href="#SVGID_24_"  style="overflow:visible;"/>
	</clipPath>
	
		<linearGradient id="SVGID_26_" gradientUnits="userSpaceOnUse" x1="-1069.2766" y1="883.8618" x2="-1068.2766" y2="883.8618" gradientTransform="matrix(106.9307 -61.7365 -61.7365 -106.9307 169136.7813 28769.1328)">
		<stop  offset="0" style="stop-color:#299AD9"/>
		<stop  offset="0.1955" style="stop-color:#299AD9"/>
		<stop  offset="0.3084" style="stop-color:#2C9DDB"/>
		<stop  offset="0.3906" style="stop-color:#35A6E2"/>
		<stop  offset="0.4628" style="stop-color:#45B6EE"/>
		<stop  offset="0.5292" style="stop-color:#5ACCFE"/>
		<stop  offset="0.5335" style="stop-color:#5CCEFF"/>
		<stop  offset="1" style="stop-color:#5CCEFF"/>
	</linearGradient>
	<polygon class="st10" points="186.3,191.8 313.8,118.2 404.7,275.6 277.2,349.2 	"/>
</g>
<g>
	<defs>
		<path id="SVGID_27_" d="M137.1,262.9c0,0,8.4,58.8,14.7,66.5c6.3,7.7,18.8,3.2,18.8,3.2c24.6-47,16-75.9,6.5-112.9
			c-9.5-37-15.6-78.3-15.6-78.3C145.9,142,137.1,262.9,137.1,262.9"/>
	</defs>
	<clipPath id="SVGID_28_">
		<use xlink:href="#SVGID_27_"  style="overflow:visible;"/>
	</clipPath>
	
		<linearGradient id="SVGID_29_" gradientUnits="userSpaceOnUse" x1="-1069.2766" y1="883.9319" x2="-1068.2766" y2="883.9319" gradientTransform="matrix(91.4035 52.7718 52.7718 -91.4035 51207.3984 137433.8906)">
		<stop  offset="0" style="stop-color:#0D7EC6"/>
		<stop  offset="0.1859" style="stop-color:#2394D6"/>
		<stop  offset="0.572" style="stop-color:#5BCDFE"/>
		<stop  offset="0.5782" style="stop-color:#5CCEFF"/>
		<stop  offset="1" style="stop-color:#0071BC"/>
	</linearGradient>
	<polygon class="st11" points="151.6,116.2 279.9,190.3 180.7,362.2 52.4,288.2 	"/>
</g>
<g>
	<defs>
		<rect id="SVGID_30_" x="-1069.3" y="-196.1" width="1920" height="1080"/>
	</defs>
	<clipPath id="SVGID_31_">
		<use xlink:href="#SVGID_30_"  style="overflow:visible;"/>
	</clipPath>
	<path class="st12" d="M161.5,141.4c0,0,6.1,41.3,15.6,78.3c9.5,37,18.1,65.9-6.5,112.9c0,0-12.4,4.5-18.8-3.2
		c-6.3-7.7-14.7-66.5-14.7-66.5S145.9,142,161.5,141.4z"/>
</g>
<g>
	<defs>
		<path id="SVGID_32_" d="M143.4,275c0,0,6.2,42.2,11,47.7c4.7,5.5,14,2.3,14,2.3c18.4-33.7,12-54.4,4.9-81
			c-7.1-26.6-11.6-56.2-11.6-56.2C150,188.3,143.4,275,143.4,275"/>
	</defs>
	<clipPath id="SVGID_33_">
		<use xlink:href="#SVGID_32_"  style="overflow:visible;"/>
	</clipPath>
	
		<linearGradient id="SVGID_34_" gradientUnits="userSpaceOnUse" x1="-1069.2766" y1="883.8933" x2="-1068.2766" y2="883.8933" gradientTransform="matrix(63.9066 -36.8965 -36.8965 -63.9066 101075.2891 17312.9238)">
		<stop  offset="0" style="stop-color:#299AD9"/>
		<stop  offset="0.1955" style="stop-color:#299AD9"/>
		<stop  offset="0.3084" style="stop-color:#2C9DDB"/>
		<stop  offset="0.3906" style="stop-color:#35A6E2"/>
		<stop  offset="0.4628" style="stop-color:#45B6EE"/>
		<stop  offset="0.5292" style="stop-color:#5ACCFE"/>
		<stop  offset="0.5335" style="stop-color:#5CCEFF"/>
		<stop  offset="1" style="stop-color:#5CCEFF"/>
	</linearGradient>
	<polygon class="st13" points="82.6,222.9 175.9,169.1 247.5,293.1 154.2,347 	"/>
</g>
<g>
	<defs>
		<path id="SVGID_35_" d="M137.1,356.1c0,0,16.1,8.1,33.4,3.2c0,0-0.7-43.3-21.9-76.3c-21.2-33-23.4-55.9-23.4-55.9
			S101.2,310.9,137.1,356.1"/>
	</defs>
	<clipPath id="SVGID_36_">
		<use xlink:href="#SVGID_35_"  style="overflow:visible;"/>
	</clipPath>
	
		<linearGradient id="SVGID_37_" gradientUnits="userSpaceOnUse" x1="-1069.2766" y1="883.8833" x2="-1068.2766" y2="883.8833" gradientTransform="matrix(53.1627 0 0 -53.1627 56963.043 47285.2539)">
		<stop  offset="0" style="stop-color:#6AC24C"/>
		<stop  offset="0.1732" style="stop-color:#6AC24C"/>
		<stop  offset="1" style="stop-color:#006837"/>
	</linearGradient>
	<rect x="101.2" y="227" class="st14" width="69.3" height="137.1"/>
</g>
<g>
	<defs>
		<rect id="SVGID_38_" x="-1069.3" y="-196.1" width="1920" height="1080"/>
	</defs>
	<clipPath id="SVGID_39_">
		<use xlink:href="#SVGID_38_"  style="overflow:visible;"/>
	</clipPath>
	<path class="st15" d="M170.6,359.2c0,0-0.7-43.3-21.9-76.3c-21.2-33-23.4-55.9-23.4-55.9s-24,83.9,11.9,129
		C137.1,356.1,153.2,364.2,170.6,359.2z"/>
</g>
<g>
	<defs>
		<path id="SVGID_40_" d="M145.3,356.8c0,0,11.7,4,23.1,0.9c0,0-5.5-35.5-22.1-60c-16.6-24.5-20.3-42.6-20.3-42.6
			S118.4,323.7,145.3,356.8"/>
	</defs>
	<clipPath id="SVGID_41_">
		<use xlink:href="#SVGID_40_"  style="overflow:visible;"/>
	</clipPath>
	
		<linearGradient id="SVGID_42_" gradientUnits="userSpaceOnUse" x1="-1069.2766" y1="883.9293" x2="-1068.2766" y2="883.9293" gradientTransform="matrix(26.0717 -14.3145 -13.9321 -27.8199 40317.3164 9603.0479)">
		<stop  offset="0" style="stop-color:#D9E021"/>
		<stop  offset="9.217880e-02" style="stop-color:#D9E021"/>
		<stop  offset="0.3799" style="stop-color:#6AC24C"/>
		<stop  offset="0.609" style="stop-color:#68C04C"/>
		<stop  offset="0.7157" style="stop-color:#60BA4A"/>
		<stop  offset="0.7971" style="stop-color:#54AF48"/>
		<stop  offset="0.8657" style="stop-color:#419F44"/>
		<stop  offset="0.9261" style="stop-color:#2A8B3F"/>
		<stop  offset="0.98" style="stop-color:#0D733A"/>
		<stop  offset="1" style="stop-color:#006837"/>
	</linearGradient>
	<polygon class="st16" points="76.9,277.9 157.6,233.5 210,338 129.2,382.3 	"/>
</g>
<g>
	<defs>
		<rect id="SVGID_43_" x="-1069.3" y="-196.1" width="1920" height="1080"/>
	</defs>
	<clipPath id="SVGID_44_">
		<use xlink:href="#SVGID_43_"  style="overflow:visible;"/>
	</clipPath>
	<path class="st17" d="M246.6,445.9c17-0.6,35-1.6,50.6-9.2c22.7-11.1,36.1-36.2,31.6-61.1"/>
	<path class="st18" d="M246.6,445.9c10.4-1.4,20.8-2.4,30.9-4.8c10-2.3,19.6-6.1,27.6-12.1c8.1-5.9,14.4-14.1,18.7-23.3
		c4.2-9.2,5.9-19.6,5.1-30.1c2.8,10.1,2.3,21.4-1.5,31.5c-1.9,5.1-4.5,9.9-7.7,14.3c-0.8,1.1-1.6,2.2-2.5,3.2l-2.8,3
		c-1,0.9-2,1.8-3,2.8c-0.5,0.5-1,0.9-1.6,1.3l-1.6,1.3c-4.4,3.2-9.2,5.9-14.3,7.8c-5.1,1.9-10.3,3.3-15.6,4.1
		C267.7,446.6,257.1,446.6,246.6,445.9"/>
	<path class="st17" d="M328.8,375.7c0,0-90.3-29.5-82.2,70.3"/>
	<path class="st18" d="M328.8,375.7c-5.5-1.1-11.1-1.8-16.7-2.2c-1.4-0.1-2.8-0.1-4.2-0.2c-1.4,0-2.8,0-4.2,0
		c-2.8,0.1-5.5,0.2-8.2,0.5c-5.4,0.6-10.8,1.7-15.8,3.6c-5,1.9-9.7,4.5-13.8,8c-2,1.7-3.8,3.6-5.5,5.7l-2.4,3.2l-2.1,3.4
		c-0.2,0.3-0.4,0.6-0.5,0.9l-0.4,0.9l-0.9,1.8l-0.9,1.8c-0.3,0.6-0.5,1.3-0.7,1.9c-0.5,1.3-0.9,2.5-1.4,3.8l-1.1,4
		c-2.8,10.6-3.4,21.9-3.6,33.2c-1.9-11.1-2.4-22.7-0.2-34l0.9-4.3c0.4-1.4,0.8-2.8,1.3-4.2c0.2-0.7,0.4-1.4,0.7-2.1l0.9-2l0.9-2
		l0.4-1c0.2-0.3,0.4-0.6,0.5-1c2.6-5.3,6.4-10,10.9-13.9c4.5-3.9,9.8-6.8,15.4-8.6c5.6-1.9,11.4-2.8,17.2-3
		c5.8-0.2,11.5,0.2,17.1,1.2C318.1,372.1,323.6,373.5,328.8,375.7"/>
	<path class="st19" d="M315.8,373.3c0,0,6.2,41.4-24.8,57c-31,15.6-42.8-14-42.8-14s1.8-29,27.5-39.1
		C275.6,377.2,290.5,370.1,315.8,373.3"/>
	<path class="st20" d="M262.4,388.2c-2.8,5.9-0.7,12.8,4.6,15.3c5.4,2.5,12-0.2,14.8-6.1c2.8-5.9,0.7-12.8-4.6-15.3
		C271.8,379.6,265.2,382.3,262.4,388.2"/>
	<path class="st20" d="M297.9,405.8c0,2.8,2.3,5.1,5.1,5.1c2.8,0,5.1-2.3,5.1-5.1c0-2.8-2.3-5.1-5.1-5.1
		C300.2,400.7,297.9,403,297.9,405.8"/>
	<path class="st17" d="M149,449.3c0,0,8.6-40.7-23.3-56.5"/>
	<path class="st21" d="M149,449.3c0,0,8.6-40.7-23.3-56.5"/>
	<path class="st17" d="M125.7,392.8c0,0-11.1,42.7,23.3,56.5"/>
	<path class="st21" d="M125.7,392.8c0,0-11.1,42.7,23.3,56.5"/>
	<path class="st19" d="M150,436.9c0,0-31-1.6-24.3-44.1C125.7,392.8,150.4,401.7,150,436.9"/>
	<path class="st20" d="M139.1,405.2c2.4,3.7,2.7,7.8,0.6,9.2c-2.1,1.4-5.8-0.5-8.2-4.2c-2.4-3.7-2.7-7.8-0.6-9.2
		C133,399.7,136.7,401.5,139.1,405.2"/>
</g>
<g>
	<defs>
		<path id="SVGID_45_" d="M342.9,389c0,6,4.9,10.9,10.9,10.9s10.9-4.9,10.9-10.9s-4.9-10.9-10.9-10.9S342.9,383,342.9,389"/>
	</defs>
	<clipPath id="SVGID_46_">
		<use xlink:href="#SVGID_45_"  style="overflow:visible;"/>
	</clipPath>
	
		<linearGradient id="SVGID_47_" gradientUnits="userSpaceOnUse" x1="-1069.2766" y1="883.9149" x2="-1068.2766" y2="883.9149" gradientTransform="matrix(15.484 -15.484 -15.484 -15.484 30589.3066 -2473.3782)">
		<stop  offset="0" style="stop-color:#46352E"/>
		<stop  offset="0.1532" style="stop-color:#50413D"/>
		<stop  offset="0.4778" style="stop-color:#605557"/>
		<stop  offset="0.77" style="stop-color:#6A6266"/>
		<stop  offset="1" style="stop-color:#6E666C"/>
	</linearGradient>
	<polygon class="st22" points="332,389 353.8,367.1 375.7,389 353.8,410.9 	"/>
</g>
<g>
	<defs>
		<path id="SVGID_48_" d="M333.8,419c0,4,3.2,7.3,7.3,7.3c4,0,7.3-3.2,7.3-7.3s-3.2-7.3-7.3-7.3C337.1,411.7,333.8,415,333.8,419"/>
	</defs>
	<clipPath id="SVGID_49_">
		<use xlink:href="#SVGID_48_"  style="overflow:visible;"/>
	</clipPath>
	
		<linearGradient id="SVGID_50_" gradientUnits="userSpaceOnUse" x1="-1069.2766" y1="883.9149" x2="-1068.2766" y2="883.9149" gradientTransform="matrix(10.2561 -10.2561 -10.2561 -10.2561 20368.1582 -1477.0101)">
		<stop  offset="0" style="stop-color:#46352E"/>
		<stop  offset="0.1532" style="stop-color:#50413D"/>
		<stop  offset="0.4778" style="stop-color:#605557"/>
		<stop  offset="0.77" style="stop-color:#6A6266"/>
		<stop  offset="1" style="stop-color:#6E666C"/>
	</linearGradient>
	<polygon class="st23" points="326.6,419 341.1,404.5 355.6,419 341.1,433.5 	"/>
</g>
<g>
	<defs>
		<path id="SVGID_51_" d="M316.9,437.5c0,2.7,2.2,4.9,4.9,4.9c2.7,0,4.9-2.2,4.9-4.9c0-2.7-2.2-4.9-4.9-4.9
			C319.1,432.6,316.9,434.8,316.9,437.5"/>
	</defs>
	<clipPath id="SVGID_52_">
		<use xlink:href="#SVGID_51_"  style="overflow:visible;"/>
	</clipPath>
	
		<linearGradient id="SVGID_53_" gradientUnits="userSpaceOnUse" x1="-1069.2766" y1="883.915" x2="-1068.2766" y2="883.915" gradientTransform="matrix(6.9758 -6.9758 -6.9758 -6.9758 13943.4258 -852.0182)">
		<stop  offset="0" style="stop-color:#46352E"/>
		<stop  offset="0.1532" style="stop-color:#50413D"/>
		<stop  offset="0.4778" style="stop-color:#605557"/>
		<stop  offset="0.77" style="stop-color:#6A6266"/>
		<stop  offset="1" style="stop-color:#6E666C"/>
	</linearGradient>
	<polygon class="st24" points="312,437.5 321.8,427.7 331.7,437.5 321.8,447.4 	"/>
</g>
<g>
	<defs>
		<path id="SVGID_54_" d="M268.3,505.5c-8.6,14.9,1.9,24.4,1.9,24.4c53.8,0.9,83.6-16.7,83.6-16.7c2-20.3-5.5-39.3-5.5-39.3
			L268.3,505.5z"/>
	</defs>
	<clipPath id="SVGID_55_">
		<use xlink:href="#SVGID_54_"  style="overflow:visible;"/>
	</clipPath>
	
		<linearGradient id="SVGID_56_" gradientUnits="userSpaceOnUse" x1="-1069.2766" y1="883.91" x2="-1068.2766" y2="883.91" gradientTransform="matrix(89.2757 0 0 -89.2757 95725.3906 79414.0781)">
		<stop  offset="0" style="stop-color:#DE1F32"/>
		<stop  offset="1" style="stop-color:#8E0000"/>
	</linearGradient>
	<rect x="259.7" y="473.9" class="st25" width="96.2" height="56.9"/>
</g>
<g>
	<defs>
		<rect id="SVGID_57_" x="-1069.3" y="-196.1" width="1920" height="1080"/>
	</defs>
	<clipPath id="SVGID_58_">
		<use xlink:href="#SVGID_57_"  style="overflow:visible;"/>
	</clipPath>
	<path class="st26" d="M348.3,473.9c0,0,7.6,19,5.5,39.3c0,0-29.8,17.6-83.6,16.7c0,0-10.5-9.5-1.9-24.4L348.3,473.9z"/>
</g>
<g>
	<defs>
		<path id="SVGID_59_" d="M331.8,525c-9.4,1.7-20.9,3.7-30.3,5.4c-6.4,1.2-12.9,2.3-19.3,3.5c-2.8,0.5-5.3,1.4-7.3,2.7
			c-13.3,7.9-13.9,26.3-4.7,38.4c0,0,11.6,10.1,52.7,7.3c10.2-0.7,23.5-0.1,30.2-8.6c7.1-8.8,5.7-22.1,5.4-33.4
			c-0.2-12.2-3.7-14.4-7.9-16.4c-2-1-4-1.4-6-1.4C340.4,522.5,336.2,524.2,331.8,525"/>
	</defs>
	<clipPath id="SVGID_60_">
		<use xlink:href="#SVGID_59_"  style="overflow:visible;"/>
	</clipPath>
	<g class="st27">
		<g>
			<defs>
				
					<rect id="SVGID_61_" x="252" y="500.7" transform="matrix(0.8434 -0.5373 0.5373 0.8434 -248.8816 253.6245)" width="117.2" height="106"/>
			</defs>
			<clipPath id="SVGID_62_">
				<use xlink:href="#SVGID_61_"  style="overflow:visible;"/>
			</clipPath>
			<g style="clip-path:url(#SVGID_62_);">
				
					<image style="overflow:visible;" width="651" height="636" xlink:href="6A540AAB.jpg"  transform="matrix(0.24 0 0 0.24 232.4834 477.3549)">
				</image>
			</g>
		</g>
	</g>
</g>
<g>
	<defs>
		<rect id="SVGID_63_" x="-1069.3" y="-196.1" width="1920" height="1080"/>
	</defs>
	<clipPath id="SVGID_64_">
		<use xlink:href="#SVGID_63_"  style="overflow:visible;"/>
	</clipPath>
	<path class="st28" d="M274.9,536.5c-13.3,7.9-13.9,26.3-4.7,38.4c0,0,11.6,10.1,52.7,7.3c10.2-0.7,23.5-0.1,30.2-8.6
		c7.1-8.8,5.7-22.1,5.4-33.4c-0.2-12.2-3.7-14.4-7.9-16.4c-6.5-3.1-12.6,0-18.9,1.2c-9.4,1.7-20.9,3.7-30.3,5.4
		c-6.4,1.2-12.9,2.3-19.3,3.5C279.4,534.4,277,535.3,274.9,536.5z"/>
</g>
<g>
	<defs>
		<path id="SVGID_65_" d="M320.9,585c-1.3,0-2.7,0.1-4,0.1c-8.8,0-17.7,0.3-26.5,0.7c-4.7,0.2-9.4,0.5-14.2,0.7
			c-2.6,0.1-5,0.6-7.3,1.5c-12,4.5-19.3,18.6-17.2,31.4c1.4,8.9,9.5,13.9,17.5,16.3c9.2,2.8,19.1,4,28.7,4.6
			c8.6,0.5,17.4,0.6,25.8-1.1c3.8-0.7,7.3-2.4,10.8-4.1c3.2-1.6,6.6-2.9,9.5-5.1c5.3-3.9,7.8-10.5,8-16.9c0.1-3.7-0.5-7.3-1.5-10.9
			c-1.7-5.8-4.9-11.7-10.5-14.6c-4.5-2.4-9.9-2.8-15.2-2.8C323.6,585,322.3,585,320.9,585"/>
	</defs>
	<clipPath id="SVGID_66_">
		<use xlink:href="#SVGID_65_"  style="overflow:visible;"/>
	</clipPath>
	
		<linearGradient id="SVGID_67_" gradientUnits="userSpaceOnUse" x1="-1069.2766" y1="883.9294" x2="-1068.2766" y2="883.9294" gradientTransform="matrix(10.6224 -60.2427 -60.2427 -10.6224 64904.6797 -54385.5898)">
		<stop  offset="0" style="stop-color:#FCEE21"/>
		<stop  offset="0.202" style="stop-color:#FCEE24"/>
		<stop  offset="0.3312" style="stop-color:#FCEF2C"/>
		<stop  offset="0.4401" style="stop-color:#FCEF3B"/>
		<stop  offset="0.5377" style="stop-color:#FCF150"/>
		<stop  offset="0.6277" style="stop-color:#FCF26B"/>
		<stop  offset="0.7122" style="stop-color:#FCF48C"/>
		<stop  offset="0.7908" style="stop-color:#FCF6B3"/>
		<stop  offset="0.8492" style="stop-color:#FCF8D5"/>
		<stop  offset="0.8709" style="stop-color:#FAF3B6"/>
		<stop  offset="0.9151" style="stop-color:#F5E97C"/>
		<stop  offset="0.9529" style="stop-color:#F2E152"/>
		<stop  offset="0.9824" style="stop-color:#F0DD38"/>
		<stop  offset="1" style="stop-color:#EFDB2E"/>
	</linearGradient>
	<polygon class="st29" points="240.2,639.1 252.8,567.4 361.9,586.6 349.2,658.4 	"/>
</g>
<g>
	<defs>
		<rect id="SVGID_68_" x="-1069.3" y="-196.1" width="1920" height="1080"/>
	</defs>
	<clipPath id="SVGID_69_">
		<use xlink:href="#SVGID_68_"  style="overflow:visible;"/>
	</clipPath>
	<path class="st30" d="M269,587.9c-12,4.5-19.3,18.6-17.2,31.4c1.4,8.9,9.5,13.9,17.5,16.3c9.2,2.8,19.1,4,28.7,4.6
		c8.6,0.5,17.4,0.6,25.8-1.1c3.8-0.7,7.3-2.4,10.8-4.1c3.2-1.6,6.6-2.9,9.5-5.1c5.3-3.9,7.8-10.5,8-16.9c0.1-3.7-0.5-7.3-1.5-10.9
		c-1.7-5.8-4.9-11.7-10.5-14.6c-6.9-3.6-15.7-2.6-23.2-2.6c-8.8,0-17.7,0.3-26.5,0.7c-4.7,0.2-9.4,0.5-14.2,0.7
		C273.7,586.6,271.3,587.1,269,587.9z"/>
</g>
<g>
	<defs>
		<path id="SVGID_70_" d="M222.9,254.9c-8.8,15.4-16.5,42.4-18.5,66.8c-2,24.4,24.5,42.4,24.5,42.4c80.8-78.6,17.8-163.9,17.8-163.9
			C246.6,223.3,231.7,239.6,222.9,254.9"/>
	</defs>
	<clipPath id="SVGID_71_">
		<use xlink:href="#SVGID_70_"  style="overflow:visible;"/>
	</clipPath>
	
		<linearGradient id="SVGID_72_" gradientUnits="userSpaceOnUse" x1="-1069.2766" y1="883.9149" x2="-1068.2766" y2="883.9149" gradientTransform="matrix(65.8524 0 0 -65.8524 70618.7891 58490.1523)">
		<stop  offset="0" style="stop-color:#6AC24C"/>
		<stop  offset="0.1732" style="stop-color:#6AC24C"/>
		<stop  offset="1" style="stop-color:#006837"/>
	</linearGradient>
	<rect x="202.5" y="200.3" class="st31" width="107.3" height="163.9"/>
</g>
<g>
	<defs>
		<rect id="SVGID_73_" x="-1069.3" y="-196.1" width="1920" height="1080"/>
	</defs>
	<clipPath id="SVGID_74_">
		<use xlink:href="#SVGID_73_"  style="overflow:visible;"/>
	</clipPath>
	<path class="st32" d="M246.8,200.3c0,0,63,85.3-17.8,163.9c0,0-26.5-18.1-24.5-42.4c2-24.4,9.7-51.5,18.5-66.8
		C231.7,239.6,246.6,223.3,246.8,200.3z"/>
</g>
<g>
	<defs>
		<path id="SVGID_75_" d="M225.4,270c-4.9,12.9-12.4,39.4-14.7,60c-2.3,20.4,18.1,31.8,18.1,31.8c62-73.4,23-144.9,23-144.9
			C251.7,236.3,230.3,257.1,225.4,270"/>
	</defs>
	<clipPath id="SVGID_76_">
		<use xlink:href="#SVGID_75_"  style="overflow:visible;"/>
	</clipPath>
	
		<linearGradient id="SVGID_77_" gradientUnits="userSpaceOnUse" x1="-1069.2766" y1="883.8756" x2="-1068.2766" y2="883.8756" gradientTransform="matrix(75.9608 -27.6475 -27.6475 -75.9608 105859.4922 37884.6719)">
		<stop  offset="0" style="stop-color:#D9E021"/>
		<stop  offset="9.217880e-02" style="stop-color:#D9E021"/>
		<stop  offset="0.3799" style="stop-color:#6AC24C"/>
		<stop  offset="0.609" style="stop-color:#68C04C"/>
		<stop  offset="0.7157" style="stop-color:#60BA4A"/>
		<stop  offset="0.7971" style="stop-color:#54AF48"/>
		<stop  offset="0.8657" style="stop-color:#419F44"/>
		<stop  offset="0.9261" style="stop-color:#2A8B3F"/>
		<stop  offset="0.98" style="stop-color:#0D733A"/>
		<stop  offset="1" style="stop-color:#006837"/>
	</linearGradient>
	<polygon class="st33" points="161.9,233.8 281.2,190.4 337.3,344.8 218.1,388.2 	"/>
</g>
<g>
	<defs>
		<rect id="SVGID_78_" x="-1069.3" y="-196.1" width="1920" height="1080"/>
	</defs>
	<clipPath id="SVGID_79_">
		<use xlink:href="#SVGID_78_"  style="overflow:visible;"/>
	</clipPath>
	<path class="st34" d="M147,512.8c1.7,2,3.6,3.9,5.6,5.6c2,1.7,4.1,3.3,6.3,4.6c4.4,2.7,9.4,4.5,14.5,4.4c2.5,0,4.9-0.6,7.2-1.6
		c2.3-1,4.7-2.3,7.3-3.3c1.3-0.5,2.7-0.9,4.3-1.1c1.5-0.2,3.2-0.1,4.8,0.5c0.2,0.1,0.4,0.2,0.6,0.2l0.4,0.2c0.3,0.1,0.6,0.2,0.8,0.4
		c0.6,0.2,1.2,0.4,1.7,0.6c1.2,0.4,2.4,0.7,3.6,0.9c4.9,0.9,10.1,0.9,15.1,0.2c2.5-0.4,4.9-0.9,7.2-1.7c2.3-0.8,4.5-1.8,6.4-3.1
		c3.9-2.6,6.4-6.8,7.8-11.6c1.4-4.8,2-10.1,2.8-15.4l0.5,0c0.7,5.3,1.1,10.7,0.3,16.2c-0.4,2.8-1.3,5.5-2.7,8.1
		c-1.4,2.6-3.4,4.9-5.7,6.7c-2.4,1.8-5.1,3.1-7.8,4c-2.7,0.9-5.5,1.4-8.3,1.7c-2.8,0.3-5.6,0.3-8.3,0.1c-2.8-0.2-5.5-0.5-8.2-1.2
		c-1.4-0.3-2.7-0.7-4-1.2c-0.7-0.2-1.3-0.5-2-0.8c-0.3-0.1-0.6-0.3-1-0.5l-0.8-0.4c-1.8-0.8-4.2-0.5-6.5,0.2
		c-2.4,0.8-4.7,1.9-7.3,2.9c-2.6,1-5.5,1.5-8.3,1.4c-5.7-0.2-10.9-2.5-15.3-5.6c-4.4-3.1-8.3-6.9-11.5-11.2L147,512.8z"/>
</g>
<g>
	<defs>
		<path id="SVGID_80_" d="M240.7,503.5c-1.4,4.8-4,9-7.8,11.6c-1.9,1.3-4.1,2.4-6.4,3.1c-2.3,0.8-4.7,1.4-7.2,1.7
			c-5,0.8-10.1,0.8-15.1-0.2c-1.2-0.2-2.5-0.5-3.6-0.9c-0.6-0.2-1.2-0.4-1.7-0.6c-0.3-0.1-0.6-0.2-0.8-0.4l-0.4-0.2
			c-0.2-0.1-0.4-0.2-0.6-0.2c-1.6-0.6-3.2-0.7-4.8-0.5c-1.5,0.2-2.9,0.6-4.3,1.1c-2.6,1-5,2.3-7.3,3.3c-2.3,1-4.7,1.5-7.2,1.6
			c-5,0.2-10-1.7-14.5-4.4c-2.2-1.3-4.3-2.9-6.3-4.6c-2-1.7-3.9-3.6-5.6-5.6l-0.4,0.3c3.2,4.3,7,8.1,11.5,11.2
			c4.4,3.1,9.6,5.4,15.3,5.6c2.8,0.1,5.6-0.4,8.3-1.4c2.6-1,5-2.1,7.3-2.9c2.4-0.8,4.7-1.1,6.5-0.2l0.8,0.4c0.3,0.2,0.6,0.3,1,0.5
			c0.6,0.3,1.3,0.5,2,0.8c1.3,0.5,2.7,0.9,4,1.2c2.7,0.7,5.5,1,8.2,1.2c2.8,0.2,5.5,0.1,8.3-0.1c2.8-0.3,5.5-0.8,8.3-1.7
			c2.7-0.9,5.4-2.2,7.8-4c2.4-1.8,4.3-4.2,5.7-6.7c1.4-2.6,2.2-5.4,2.6-8.1c0.9-5.5,0.4-10.9-0.3-16.2l-0.5,0
			C242.6,493.4,242.1,498.7,240.7,503.5"/>
	</defs>
	<clipPath id="SVGID_81_">
		<use xlink:href="#SVGID_80_"  style="overflow:visible;"/>
	</clipPath>
	
		<linearGradient id="SVGID_82_" gradientUnits="userSpaceOnUse" x1="-1069.2766" y1="883.9146" x2="-1068.2766" y2="883.9146" gradientTransform="matrix(101.3416 0 0 -101.3416 108507.0625 90084.2188)">
		<stop  offset="0" style="stop-color:#6E666C"/>
		<stop  offset="0.2934" style="stop-color:#6C6369"/>
		<stop  offset="0.5273" style="stop-color:#665C5F"/>
		<stop  offset="0.7406" style="stop-color:#5B4E4E"/>
		<stop  offset="0.9405" style="stop-color:#4C3C37"/>
		<stop  offset="1" style="stop-color:#46352E"/>
	</linearGradient>
	<rect x="146.6" y="488.1" class="st35" width="98.4" height="37.5"/>
</g>
<g>
	<defs>
		<rect id="SVGID_83_" x="-1069.3" y="-196.1" width="1920" height="1080"/>
	</defs>
	<clipPath id="SVGID_84_">
		<use xlink:href="#SVGID_83_"  style="overflow:visible;"/>
	</clipPath>
	<path class="st36" d="M317.4,420.8c1.6-4.1,3.5-8,5.2-11.8c1.7-3.8,3.3-7.6,4.2-11.5c0.2-1,0.4-1.9,0.6-3c0.2-1,0.3-2.1,0.5-3.1
		c0.3-2.1,0.6-4.1,0.8-6.2c0.4-4.2,0.8-8.4,1.1-12.8c1.7,4.1,2.5,8.5,2.8,12.9c0.2,2.2,0.1,4.4,0,6.6c-0.2,2.2-0.4,4.4-0.9,6.7
		c-1.1,4.5-3.1,8.6-5.6,12.3C323.5,414.6,320.6,417.9,317.4,420.8"/>
</g>
<g>
	<defs>
		<path id="SVGID_85_" d="M257,517.9c0,0,3.3,14.4-6.5,41.8c-5.1,14.1,6.1,21.1,6.1,21.1l8.2-0.1c1.7,0,2.7-1.7,2.1-3.2l-4.7-10.9
			c-3.2-8.3,3.4-23.9,3.4-23.9l7.8-8l-6.1-4.2c-1.3-1.1-3.4-5-3.6-6.7l-1.5-11.9L257,517.9z"/>
	</defs>
	<clipPath id="SVGID_86_">
		<use xlink:href="#SVGID_85_"  style="overflow:visible;"/>
	</clipPath>
	
		<linearGradient id="SVGID_87_" gradientUnits="userSpaceOnUse" x1="-1069.2766" y1="883.9149" x2="-1068.2766" y2="883.9149" gradientTransform="matrix(24.2464 0 0 -24.2464 26175.3027 21978.0078)">
		<stop  offset="0" style="stop-color:#46352E"/>
		<stop  offset="0.4243" style="stop-color:#554846"/>
		<stop  offset="1" style="stop-color:#6E666C"/>
	</linearGradient>
	<rect x="245.5" y="511.8" class="st37" width="28" height="68.9"/>
</g>
<g>
	<defs>
		<path id="SVGID_88_" d="M368.2,450.3c-0.9,6.6-9,15.7-12.8,19.7c-1,3.2-1.9,6.5-2.6,9.8c0.5,2,1,3.8,2.1,5.6
			c7.2,11.9,12.2,7.6,15.4,21c4.2,17.6,5.8,52.6,6.9,70.7c0.2,4.3,0.4,8.6,0.6,12.9c0.1,2.1,0.1,4.2,0.2,6.3c0,1.6,0.7,4.1,0.3,5.7
			c5.1-20.4,13.4-56.8,14-82.2c0.2-7.9,0.6-24.6-1.6-39.4c-2.3-14.8-6.5-27.1-6.5-27.1l6.7-1l-18.9-11
			C371.8,441.4,369.1,443.9,368.2,450.3"/>
	</defs>
	<clipPath id="SVGID_89_">
		<use xlink:href="#SVGID_88_"  style="overflow:visible;"/>
	</clipPath>
	
		<linearGradient id="SVGID_90_" gradientUnits="userSpaceOnUse" x1="-1069.2766" y1="883.9039" x2="-1068.2766" y2="883.9039" gradientTransform="matrix(86.3892 49.8768 49.8768 -86.3892 48624.6836 130192.8594)">
		<stop  offset="0" style="stop-color:#46352E"/>
		<stop  offset="0.112" style="stop-color:#5D504B"/>
		<stop  offset="0.248" style="stop-color:#736B67"/>
		<stop  offset="0.3945" style="stop-color:#847F7D"/>
		<stop  offset="0.5548" style="stop-color:#908E8D"/>
		<stop  offset="0.7387" style="stop-color:#979696"/>
		<stop  offset="1" style="stop-color:#999999"/>
	</linearGradient>
	<polygon class="st38" points="362.8,424 462.4,481.5 382.8,619.3 283.3,561.8 	"/>
</g>
<g>
	<defs>
		<path id="SVGID_91_" d="M221.4,374.6l-15.3,96c0,0,0.6,5.2,6.4,3.8c5.8-1.4,20.8-19.3,20.8-19.3s-11.4-75.2-2-88.3L221.4,374.6z
			 M231.3,367C231.3,367,231.3,367,231.3,367C231.3,367,231.3,367,231.3,367 M231.3,367c0.3-0.4,4.1-5.8,4.1-5.8
			S234.4,362.6,231.3,367"/>
	</defs>
	<clipPath id="SVGID_92_">
		<use xlink:href="#SVGID_91_"  style="overflow:visible;"/>
	</clipPath>
	
		<linearGradient id="SVGID_93_" gradientUnits="userSpaceOnUse" x1="-1069.2766" y1="883.8956" x2="-1068.2766" y2="883.8956" gradientTransform="matrix(29.2785 0 0 -29.2785 31512.9922 26297.6973)">
		<stop  offset="0" style="stop-color:#6E666C"/>
		<stop  offset="0.1799" style="stop-color:#62585A"/>
		<stop  offset="0.4852" style="stop-color:#534542"/>
		<stop  offset="0.7668" style="stop-color:#493933"/>
		<stop  offset="1" style="stop-color:#46352E"/>
	</linearGradient>
	<rect x="206.2" y="361.2" class="st39" width="29.3" height="114.7"/>
</g>
<g>
	<defs>
		<rect id="SVGID_94_" x="-1069.3" y="-196.1" width="1920" height="1080"/>
	</defs>
	<clipPath id="SVGID_95_">
		<use xlink:href="#SVGID_94_"  style="overflow:visible;"/>
	</clipPath>
	<path class="st40" d="M453.4,185.8c-0.4,7.9-1.5,15.8-3.1,23.6c-1.6,7.8-3.6,15.5-6.2,23.1c-5.9,14.9-13.7,29.2-24.3,41.4
		c-5.3,6.1-11.3,11.6-17.9,16.3c-6.6,4.7-13.9,8.5-21.5,11.3c-7.6,2.9-15.7,4.3-23.6,5.3c-7.8,1-15.6,2.1-23.3,3.6
		c-15.4,2.8-30.7,6.6-45.3,12.1c-7.3,2.8-14.4,6-21.1,9.8c-6.7,3.8-13,8.4-18.4,13.8c-2.7,2.7-5.2,5.6-7.4,8.7
		c-1.2,1.5-2.1,3.2-3,4.8c-0.5,0.8-0.9,1.7-1.3,2.5c-0.4,0.8-0.9,1.7-1.2,2.6l-1.1,2.6c-0.3,0.9-0.6,1.8-0.9,2.7
		c-0.6,1.8-1,3.6-1.4,5.5c-0.4,1.9-0.7,3.8-1,5.8c-0.3,1.9-0.5,3.9-0.9,5.8c-0.8,3.8-1.4,7.7-2,11.6c-0.5,3.9-0.9,7.8-1.1,11.7
		c-0.2,3.9-0.2,7.8,0,11.7c0.2,3.9,0.7,7.9,0.9,11.8c-0.7-3.9-1.6-7.7-2.3-11.7c-0.7-3.9-1.1-7.9-1.3-11.9c-0.4-8,0-16,0.8-24
		c0.2-2,0.5-4,0.9-5.9c0.4-2,0.7-3.9,1.1-5.9c0.5-2,0.9-4,1.5-6c0.3-1,0.6-2,1-2.9l1.2-2.9c0.4-1,0.8-1.9,1.3-2.8
		c0.5-0.9,0.9-1.9,1.4-2.7c1.1-1.8,2.1-3.6,3.3-5.2c2.3-3.4,5.1-6.5,7.9-9.4c5.8-5.7,12.4-10.5,19.4-14.5c7-4,14.3-7.3,21.8-10.2
		c15-5.6,30.5-9.4,46.2-12.3c7.8-1.4,15.7-2.6,23.6-3.6c1-0.1,2-0.2,2.9-0.4l2.8-0.5l2.9-0.5c0.5-0.1,1-0.1,1.4-0.2l1.4-0.3l5.6-1.4
		l5.5-1.8c7.2-2.6,14.1-6.2,20.3-10.6c6.3-4.4,12-9.7,17-15.5c10.1-11.7,17.7-25.5,23.4-40c0.8-1.8,1.5-3.6,2.3-5.4
		c0.7-1.8,1.4-3.6,2.1-5.5c1.4-3.7,2.6-7.4,3.8-11.1c1.2-3.7,2.3-7.5,3.2-11.4C451.8,193.6,452.7,189.7,453.4,185.8"/>
</g>
<g>
	<defs>
		<path id="SVGID_96_" d="M408.9,325.9c0,0-14.1,24.3-111.1,30.5c0,0-60.1-5.6-54.2,88.1l2.9,1.5c-7-54.1,25.5-70.3,25.5-70.3
			c19.6-7.9,39.1-8.8,60.2-9.9c10.2-0.6,29.3-0.4,35.8-1.5c37.2-6.4,69.3-40.1,83.2-73.5c9.4-22.6,11.8-47.6,9.2-71.8
			c-1.2-11.1-3.3-22.4-7-33C453.4,185.8,472.8,276.8,408.9,325.9"/>
	</defs>
	<clipPath id="SVGID_97_">
		<use xlink:href="#SVGID_96_"  style="overflow:visible;"/>
	</clipPath>
	
		<linearGradient id="SVGID_98_" gradientUnits="userSpaceOnUse" x1="-1069.2766" y1="883.9467" x2="-1068.2766" y2="883.9467" gradientTransform="matrix(250.4028 -210.1129 -210.1129 -250.4028 453705.0313 -2902.1204)">
		<stop  offset="0" style="stop-color:#6E666C"/>
		<stop  offset="0.3497" style="stop-color:#62585A"/>
		<stop  offset="1" style="stop-color:#46352E"/>
	</linearGradient>
	<polygon class="st41" points="109.8,293.3 375.7,70.1 600.9,338.5 334.9,561.6 	"/>
</g>
<g>
	<defs>
		<rect id="SVGID_99_" x="-1069.3" y="-196.1" width="1920" height="1080"/>
	</defs>
	<clipPath id="SVGID_100_">
		<use xlink:href="#SVGID_99_"  style="overflow:visible;"/>
	</clipPath>
	<path class="st42" d="M102.8,380c4.1-0.5,8.4-0.1,12.5,0.7c3.9,1.5,7.7,3.4,11.2,5.7c7.1,4.5,13.2,10.7,17.4,18
		c2.1,3.6,3.8,7.5,5.2,11.5c0.3,1,0.6,2,0.9,3l0.4,1.5l0.3,1.5l0.6,3.1l0.4,3.1c0.3,2.1,0.4,4.1,0.6,6.2c0.1,1,0.1,2.1,0.1,3.1
		c0,0.5,0,1,0,1.5c0,0.5,0.1,1,0,1.5c-0.4,2.1-0.9,4.1-1.4,6.1c-0.6,2-1.2,4-1.9,5.9c-0.3-2.1-0.5-4.1-0.8-6.1l-0.9-6
		c-0.1-2,0-3.9-0.1-5.9c-0.2-1.9-0.2-3.9-0.6-5.8l-0.4-2.9l-0.6-2.8l-0.3-1.4l-0.4-1.4c-0.3-0.9-0.5-1.9-0.8-2.8
		c-1.2-3.7-2.8-7.2-4.7-10.5c-3.9-6.6-9.4-12.2-15.8-16.3c-3.2-2.1-6.7-3.8-10.3-5.2C110.1,383.4,106.6,381.6,102.8,380"/>
</g>
<g>
	<defs>
		<path id="SVGID_101_" d="M105.8,378.9c7.8,1.6,15.3,4.8,21.7,9.3c6.5,4.5,11.9,10.3,15.6,17.1c1.8,3.4,3.3,7,4.3,10.7
			c0.3,0.9,0.5,1.9,0.7,2.8l0.4,1.4l0.3,1.4l0.6,2.8l0.5,2.9c0.7,3.8,1.1,7.7,1.4,11.7c0.1,2,0.2,4,0.4,6c0.1,2,0.1,4,0.3,6.1
			l0.5,0.1c0.6-2,1-4,1.5-6c0.3-2,0.6-4,0.9-6.1c0.1-1,0.2-2,0.2-3.1c0-1,0.1-2.1,0.1-3.1c-0.1-2.1,0-4.1-0.3-6.2l-0.4-3.1l-0.6-3.1
			c-0.1-0.5-0.2-1-0.3-1.5l-0.4-1.5c-0.3-1-0.6-2-1-3c-1.5-3.9-3.3-7.7-5.6-11.2c-4.4-7.1-10.6-13-17.7-17.2
			c-3.5-2.1-7.3-3.8-11.2-5.1c-3.9-1.3-7.8-2.2-11.9-2.6L105.8,378.9z"/>
	</defs>
	<clipPath id="SVGID_102_">
		<use xlink:href="#SVGID_101_"  style="overflow:visible;"/>
	</clipPath>
	
		<linearGradient id="SVGID_103_" gradientUnits="userSpaceOnUse" x1="-1069.2766" y1="883.9149" x2="-1068.2766" y2="883.9149" gradientTransform="matrix(50.0378 0 0 -50.0378 53609.7852 44643.9063)">
		<stop  offset="0" style="stop-color:#6E666C"/>
		<stop  offset="0.3497" style="stop-color:#62585A"/>
		<stop  offset="1" style="stop-color:#46352E"/>
	</linearGradient>
	<rect x="105.8" y="378.4" class="st43" width="49.4" height="72.7"/>
</g>
<g>
	<defs>
		<rect id="SVGID_104_" x="-1069.3" y="-196.1" width="1920" height="1080"/>
	</defs>
	<clipPath id="SVGID_105_">
		<use xlink:href="#SVGID_104_"  style="overflow:visible;"/>
	</clipPath>
	<path class="st44" d="M444.2,449.7c-5.6-4.1-11.2-8.1-17-11.9c-2.9-1.9-5.8-3.7-8.8-5.5c-2.9-1.8-5.9-3.5-8.9-5.2
		c-3-1.6-6.1-3.2-9.2-4.5l-9.3-4.2c-6.2-2.8-12.3-5.3-19.2-6.4l0-0.5c3.5-0.9,7.2-0.8,10.7-0.3c3.6,0.5,7,1.4,10.4,2.6
		c6.8,2.3,12.7,6.2,18.6,10c5.9,3.7,11.6,7.8,17.1,12.1c5.5,4.3,10.8,8.7,15.9,13.5L444.2,449.7z"/>
	<path class="st44" d="M93.5,371.6c-3.6-1-6.9-2.6-10-4.5c-3.1-1.9-6-4.2-8.6-6.7c-2.6-2.6-5-5.4-6.9-8.7c-1.8-3.2-3.2-6.8-3.4-10.6
		c2.2,3,4.3,5.7,6.6,8.3c2.3,2.6,4.7,5,7.2,7.4c2.4,2.4,5,4.8,7.5,7.2C88.5,366.4,91,368.9,93.5,371.6"/>
	<path class="st44" d="M181.4,503c-0.1-2.4,0-4.7,0.4-7.1c0.4-2.3,0.9-4.6,1.8-6.9c0.5-1.1,1-2.3,2-3.5c0.5-0.6,1.1-1.2,2-1.7
		c0.9-0.5,2.4-0.8,3.6-0.4c1.2,0.4,1.9,1.1,2.4,1.7c0.6,0.6,0.9,1.2,1.2,1.9c0.6,1.2,1,2.4,1.4,3.7l0.1,0.3l0,0.1
		c0,0.6,0,1.1-0.1,1.7c-0.1,0.5-0.3,1.1-0.6,1.8c-0.1,0.2-0.2,0.3-0.3,0.5c-0.1,0.2-0.3,0.3-0.5,0.5c-0.4,0.3-0.9,0.6-1.3,0.7
		c-1,0.2-1.7,0-2.3-0.3l0.2,0.1c-0.9-0.3-1.7-0.7-2.5-1.2c-0.8-0.5-1.5-1.1-2.1-1.9c-0.3-0.4-0.5-0.9-0.6-1.5c-0.1-0.3,0-0.5,0-0.8
		c0-0.3,0.1-0.4,0.1-0.6c0.2-0.8,0.3-1.5,0.6-2.3c0.3,0.8,0.5,1.5,0.7,2.3c0.1,0.2,0.1,0.4,0.2,0.5c0.1,0.1,0.1,0.2,0.2,0.3
		c0.1,0.1,0.2,0.2,0.3,0.3c0.1,0.1,0.2,0.2,0.3,0.2c0.5,0.3,1,0.5,1.7,0.7c0.6,0.2,1.3,0.3,1.9,0.3l0.2,0.1c0.2,0,0.3-0.1,0-0.1
		c-0.3,0-0.5,0.2-0.5,0.2c0,0,0-0.2,0-0.4c0-0.2,0-0.6-0.1-0.7l0.1,0.4c-0.3-0.8-0.8-1.8-1.2-2.6c-0.2-0.4-0.5-0.7-0.7-1
		c-0.2-0.2-0.4-0.3-0.3-0.3c0.1,0.1,0.4,0,0.3,0c-0.1,0.1-0.3,0.2-0.6,0.5c-0.5,0.6-1.1,1.4-1.6,2.3c-1.1,1.8-2,3.8-3,5.8
		C183.6,498.9,182.6,501,181.4,503"/>
	<path class="st44" d="M187.9,529.8c1.5,2.6,3.8,4.7,6.4,6.2c2.6,1.6,5.4,2.6,8.4,3c5.9,1,12-0.2,17.7-2c5.7-1.9,11.1-4.7,16.3-7.9
		c5.2-3.1,10.1-6.7,14.9-10.4l-0.2,0.2c1.8-2.1,3.7-4.3,5.4-6.5c0.9-1.1,1.7-2.2,2.5-3.4c0.4-0.6,0.8-1.1,1.1-1.7
		c0.4-0.6,0.6-1.1,0.7-1.5l0.4-1l0.9-0.2c10-2.6,19.9-5.6,29.6-9c9.7-3.4,19.3-7.3,28.7-11.4c9.4-4.1,18.7-8.6,27.1-14.3
		c4.2-2.8,8.3-5.9,11.8-9.6c3.5-3.6,6.4-7.9,7.8-12.9l0.5,0.1c-0.5,5.3-3.1,10.2-6.4,14.4c-3.3,4.2-7.2,7.8-11.4,11.1
		c-4.2,3.2-8.6,6.1-13.2,8.7c-4.6,2.6-9.3,5-14,7.2c-9.6,4.3-19.5,7.8-29.4,10.9c-10,3.1-20,5.9-30.2,8.2l1.3-1.2
		c-0.2,0.5-0.4,1-0.6,1.3c-0.2,0.4-0.4,0.7-0.6,1c-0.4,0.7-0.9,1.3-1.3,1.9c-0.9,1.2-1.8,2.3-2.7,3.4c-1.9,2.2-3.7,4.4-5.7,6.5
		l-0.1,0.1l-0.1,0.1c-5,3.7-10.1,7.1-15.5,10.2c-5.4,3-11.1,5.7-17,7.5c-6,1.7-12.3,2.7-18.5,1.4c-6.1-1.2-11.9-4.8-15-10.3
		L187.9,529.8z"/>
</g>
<g>
	<defs>
		<path id="SVGID_106_" d="M263.3,505L263.3,505 M362.8,452.6c-1.3,2.2-2.9,4.2-4.7,6.1c-3.5,3.7-7.5,6.9-11.8,9.8
			c-4.2,2.9-8.7,5.4-13.3,7.7c-4.6,2.4-9.2,4.5-14,6.5c-9.5,4.1-19.2,7.5-29,10.8c-4.9,1.6-9.8,3.1-14.8,4.5
			c-4.9,1.4-9.9,2.8-14.9,4.1l-1.4,0.4l-0.3,1.4c0,0.1-0.3,0.8-0.7,1.3c-0.3,0.5-0.7,1.1-1.1,1.6c-0.8,1.1-1.7,2.2-2.5,3.3
			c-1.7,2.2-3.5,4.3-5.3,6.4c-4.2,3.7-8.6,7.2-13.2,10.4c-4.7,3.2-9.6,6-14.8,8.1c-2.6,1-5.3,1.8-8,2.3c-2.7,0.5-5.5,0.7-8.3,0.5
			c-1.4-0.1-2.8-0.4-4.1-0.7c-1.4-0.4-2.7-0.8-4-1.4c-2.5-1.2-5-2.8-6.9-5c3.3,4.8,8.9,7.9,14.7,8.9c5.9,1,12,0.2,17.6-1.7
			c5.7-1.8,10.9-4.6,15.9-7.6c5-3.1,9.7-6.7,14.2-10.4l0.1-0.1l0.1-0.1c2-2.1,3.9-4.3,5.7-6.5c0.9-1.1,1.8-2.3,2.7-3.5
			c0.4-0.6,0.9-1.2,1.3-1.9c0.2-0.4,0.4-0.7,0.7-1.1c4.7-1.1,9.3-2.4,14-3.7c5-1.4,10-3,14.9-4.7c9.9-3.3,19.7-7.1,29.2-11.5
			c9.5-4.5,18.8-9.5,27.1-15.9c4.2-3.2,8.1-6.8,11.4-10.9c1.6-2.1,3.1-4.3,4.2-6.7c1.1-2.4,1.9-4.9,2.2-7.5
			C365.2,448,364.1,450.4,362.8,452.6"/>
	</defs>
	<clipPath id="SVGID_107_">
		<use xlink:href="#SVGID_106_"  style="overflow:visible;"/>
	</clipPath>
	
		<linearGradient id="SVGID_108_" gradientUnits="userSpaceOnUse" x1="-1069.2766" y1="883.9133" x2="-1068.2766" y2="883.9133" gradientTransform="matrix(180.6117 0 0 -180.6117 193311.5469 160138.0156)">
		<stop  offset="0" style="stop-color:#46352E"/>
		<stop  offset="0.4243" style="stop-color:#554846"/>
		<stop  offset="1" style="stop-color:#6E666C"/>
	</linearGradient>
	<rect x="189.7" y="445.5" class="st45" width="176.1" height="94.8"/>
</g>
<g>
	<defs>
		<rect id="SVGID_109_" x="-1069.3" y="-196.1" width="1920" height="1080"/>
	</defs>
	<clipPath id="SVGID_110_">
		<use xlink:href="#SVGID_109_"  style="overflow:visible;"/>
	</clipPath>
	<path class="st46" d="M415.5,465.7c0,0-12.5-16-43.7-24.7"/>
	<path class="st46" d="M143.4,465.7c1.4-2.5,2.8-5,3.9-7.6c1.1-2.6,2.1-5.3,2.8-8c0.8-2.7,1.5-5.4,1.9-8.2c0.5-2.8,0.9-5.5,1.2-8.3
		c0.3-2.8,0.5-5.6,0.5-8.4c0-2.8,0-5.6,0.1-8.4c0.1-2.8,0-5.6-0.2-8.4c-0.2-2.8-0.5-5.6-0.9-8.3l0-0.1l0-0.1
		c-0.6-5.9-1.5-11.9-3.1-17.5c-1.6-5.6-4.1-10.9-7.9-15l-0.7-0.8l-0.8-0.7c-0.5-0.5-1.1-0.9-1.6-1.4c-0.6-0.4-1.1-0.9-1.7-1.3
		l-0.9-0.6l-0.9-0.5c-2.3-1.3-4.8-2.1-7.5-2.1c-2.6,0-5.3,0.6-7.9,1.7c-1.3,0.5-2.5,1.2-3.7,1.9c-0.6,0.4-1.2,0.8-1.8,1.2
		c-0.6,0.4-1.2,0.9-1.6,1.2l-2,1.7l-1.6-1.9c-6-7.2-9.9-15.5-13.1-23.9c-3.1-8.4-5.4-17.1-7.3-25.8c-1.8-8.7-3.2-17.5-4.2-26.4
		c-1-8.8-1.7-17.7-2-26.6l4.5,1.5c-0.3,0.4-0.8,1.1-1.2,1.6c-0.4,0.6-0.8,1.2-1.1,1.8c-0.7,1.2-1.4,2.5-2.1,3.8
		c-1.3,2.6-2.4,5.3-3.4,8c-1.9,5.5-3.2,11.2-3.9,17c-1.3,11.6-0.2,23.4,2.8,34.8c1.5,5.7,3.4,11.3,5.7,16.7c1.2,2.7,2.2,5.5,3.4,8.2
		c1.2,2.7,2.5,5.4,3.8,8c5.4,10.6,11.9,20.7,18.9,30.4c-8.2-8.8-15.7-18.3-22.2-28.6c-1.6-2.6-3.2-5.2-4.6-7.9
		c-1.5-2.7-2.9-5.4-4.1-8.2c-1.1-2.8-2.2-5.7-3.2-8.6c-1-2.9-1.9-5.8-2.7-8.8c-3.1-11.8-4.3-24.3-2.9-36.6
		c0.7-6.1,2.1-12.2,4.1-18.1c1-2.9,2.2-5.8,3.6-8.6c0.7-1.4,1.4-2.8,2.2-4.1c0.4-0.7,0.8-1.3,1.3-2c0.5-0.7,0.9-1.3,1.4-2l4.2-5.4
		l0.2,6.9c0.3,8.7,1,17.5,2,26.2c1,8.7,2.3,17.4,4.1,25.9c1.8,8.5,4,17,7,25.1c3,8.1,6.8,15.9,12.2,22.4l-3.6-0.2
		c0.7-0.6,1.3-1.1,2-1.6c0.7-0.5,1.4-0.9,2.1-1.4c1.4-0.9,2.9-1.6,4.4-2.3c3.1-1.3,6.4-2.1,9.9-2.1c3.5,0,7,1,9.9,2.8l1.1,0.7l1,0.7
		c0.7,0.5,1.3,1,2,1.5c1.3,1,2.5,2.1,3.6,3.4c2.3,2.4,4.1,5.2,5.5,8.1c1.4,2.9,2.6,5.9,3.5,8.9c1.8,6.1,2.7,12.3,3.3,18.4l0-0.2
		c0.9,5.9,1.1,11.6,1.2,17.5c0.1,2.9-0.2,5.8-0.5,8.7c-0.3,2.9-0.8,5.8-1.4,8.6c-1.1,5.7-2.8,11.3-5,16.7
		C149.8,456.1,146.9,461.1,143.4,465.7"/>
</g>
<g>
	<defs>
		<path id="SVGID_111_" d="M42.3,320c0,0,18.5,58.6,68.2,75.5l-18.9-24c0,0-27.7-8.6-44.8-51.5H42.3z"/>
	</defs>
	<clipPath id="SVGID_112_">
		<use xlink:href="#SVGID_111_"  style="overflow:visible;"/>
	</clipPath>
	
		<linearGradient id="SVGID_113_" gradientUnits="userSpaceOnUse" x1="-1069.2766" y1="883.9149" x2="-1068.2766" y2="883.9149" gradientTransform="matrix(68.243 0 0 -68.243 73013.0156 60678.8516)">
		<stop  offset="0" style="stop-color:#6E666C"/>
		<stop  offset="0.3497" style="stop-color:#62585A"/>
		<stop  offset="1" style="stop-color:#46352E"/>
	</linearGradient>
	<rect x="42.3" y="320" class="st47" width="68.2" height="75.5"/>
</g>
<g>
	<defs>
		<path id="SVGID_114_" d="M89.8,352c-9.5-30.1-6.3-80.8-6.3-80.8C63.7,311.7,89.8,352,89.8,352"/>
	</defs>
	<clipPath id="SVGID_115_">
		<use xlink:href="#SVGID_114_"  style="overflow:visible;"/>
	</clipPath>
	
		<linearGradient id="SVGID_116_" gradientUnits="userSpaceOnUse" x1="-1069.2766" y1="883.9149" x2="-1068.2766" y2="883.9149" gradientTransform="matrix(13.694 0 0 -13.694 14718.8477 12415.9814)">
		<stop  offset="0" style="stop-color:#6E666C"/>
		<stop  offset="0.2322" style="stop-color:#5E5253"/>
		<stop  offset="0.4924" style="stop-color:#51423F"/>
		<stop  offset="0.75" style="stop-color:#493832"/>
		<stop  offset="1" style="stop-color:#46352E"/>
	</linearGradient>
	<rect x="63.7" y="271.2" class="st48" width="26.1" height="80.8"/>
</g>
<g>
	<defs>
		<path id="SVGID_117_" d="M418.8,385.8c0.3,0,0.6,0,0.9,0l-0.9-1.4V385.8z M458.2,346.5l-4.7,4c0,0,14.6,11.6,11.2,20.1l-23.1-3.6
			l8,13c0,0,7.8,8-29.8,5.9l4.4,7l6.8,13c0,0,60.5-24.6,56.9-32.6c-4-9,0.1-10.9,0.1-10.9s33.7-9.4,40.1-44.9l15.7-3.1
			c0,0-5.5-1.9-14.7-1.9C513.4,312.5,487,317.8,458.2,346.5"/>
	</defs>
	<clipPath id="SVGID_118_">
		<use xlink:href="#SVGID_117_"  style="overflow:visible;"/>
	</clipPath>
	
		<linearGradient id="SVGID_119_" gradientUnits="userSpaceOnUse" x1="-1069.2766" y1="883.9149" x2="-1068.2766" y2="883.9149" gradientTransform="matrix(124.9419 0 0 -124.9419 134016.2656 110797.1094)">
		<stop  offset="0" style="stop-color:#46352E"/>
		<stop  offset="0.5626" style="stop-color:#5B4F4F"/>
		<stop  offset="1" style="stop-color:#6E666C"/>
	</linearGradient>
	<rect x="418.8" y="312.5" class="st49" width="124.9" height="93.3"/>
</g>
<g>
	<defs>
		<rect id="SVGID_120_" x="-1069.3" y="-196.1" width="1920" height="1080"/>
	</defs>
	<clipPath id="SVGID_121_">
		<use xlink:href="#SVGID_120_"  style="overflow:visible;"/>
	</clipPath>
	<path class="st50" d="M453.5,350.5c1.8,1.1,3.6,2.3,5.2,3.5c1.7,1.3,3.3,2.7,4.8,4.2c0.8,0.7,1.3,1.7,1.9,2.7
		c0.6,0.9,1.1,1.9,1.6,3c0.5,1.1,0.9,2.2,1.1,3.5c0.2,1.3,0.2,2.9-0.5,4.4l-0.8,1.7l-1.9-0.3l-26-4.2l2.2-4.2
		c1.4,1.4,2.6,2.8,3.8,4.2c1.2,1.5,2.3,3,3.3,4.6c1,1.6,2,3.3,2.7,5.2c0.7,1.9,1.3,4.1,0.9,6.6l-0.3,1.6l-1.6,0.4
		c-2.7,0.6-5.2,1-7.8,1.3c-2.6,0.3-5.2,0.5-7.9,0.5c-0.7,0-1.3,0.1-2,0.1c-0.7-0.1-1.3-0.2-2-0.4c-1.3-0.3-2.6-0.6-3.9-1
		c-2.6-0.8-5-1.8-7.3-3c2.6,0.1,5.2,0.1,7.7-0.1c1.3-0.1,2.5-0.2,3.7-0.4c0.6-0.1,1.2-0.2,1.8-0.2c0.6,0,1.2,0.1,1.8,0
		c2.5,0,4.9-0.2,7.4-0.5c2.4-0.3,4.9-0.7,7.2-1.2l-1.9,2c0.2-1.1-0.1-2.5-0.6-3.9c-0.5-1.4-1.3-2.9-2.2-4.3c-0.9-1.4-1.9-2.8-3-4.1
		c-1.1-1.3-2.3-2.7-3.4-3.8l-5.4-5.5l7.6,1.2l26,4.2l-2.7,1.4c0.1-0.3,0.2-0.9,0.1-1.6c-0.1-0.7-0.4-1.5-0.7-2.3
		c-0.4-0.8-0.8-1.6-1.3-2.4c-0.5-0.8-1.2-1.5-1.5-2.4c-0.8-1.8-1.9-3.5-2.9-5.3C455.7,354,454.6,352.2,453.5,350.5"/>
	<path class="st50" d="M555.9,317.5c-1.1-0.5-2.3-0.8-3.5-1.1c-1.2-0.3-2.3-0.6-3.5-0.8c-2.3-0.5-4.6-0.8-7-1
		c-4.5-1.1-9.1-1.5-13.7-1.4c-9.3,0.2-18.4,2.6-27.1,6.2c-8.6,3.7-16.8,8.5-24.4,14.2c-1.9,1.5-3.8,2.8-5.6,4.4
		c-1.8,1.5-3.7,3-5.5,4.6l-6.1,3.9c-2,1.4-4,2.7-6.1,4c1.4-2,2.8-4,4.3-6c1.5-2,3.1-3.8,4.6-5.8c0.4-0.5,0.9-0.9,1.4-1.2
		c0.5-0.4,0.9-0.8,1.4-1.2l2.8-2.3c1.9-1.5,3.9-3,5.8-4.5c7.9-5.8,16.4-10.9,25.4-14.8c9.1-3.8,18.9-6.4,28.9-6.6
		c5-0.1,10,0.4,15,1.5c2.4,0.9,4.7,2,6.8,3.3C552.1,314.3,554.1,315.8,555.9,317.5"/>
	<path class="st50" d="M445.7,452.9c-2.5-8.9-5.4-17.7-8.9-26.3c-3.4-8.6-7.2-17-11.8-24.9c-2.3-4-4.8-7.8-7.6-11.4
		c-2.7-3.6-5.6-7-8.7-10.2c-3.1-3.2-6.5-6-10.4-8.2c-3.8-2.2-8.1-3.6-12.7-4.2l0-0.5c4.7-0.9,9.7-0.2,14.2,1.5
		c2.3,0.8,4.5,2,6.5,3.3c2.1,1.3,4,2.8,5.8,4.4c3.6,3.2,6.7,7,9.3,10.9c2.6,4,4.9,8.1,7,12.3c4.3,8.4,7.7,17.1,10.6,26
		c1.4,4.4,2.7,8.9,3.9,13.4c1.2,4.5,2.2,9,3.1,13.6L445.7,452.9z"/>
	<path class="st50" d="M246.6,445.9c-1-6.5-1.6-13.1-1.4-19.8c0.2-6.6,1-13.3,2.9-19.7c1.8-6.4,4.6-12.6,8.5-18.2
		c1.9-2.8,4.1-5.4,6.5-7.8c1.2-1.2,2.5-2.3,3.8-3.4c1.4-1.1,2.7-2,4.3-3l0,0l0.1,0c6.3-2.6,12.7-4.6,19.3-6.1
		c6.6-1.4,13.3-2.4,20-3.1c6.7-0.7,13.4-1.1,20-1.5c6.7-0.4,13.4-0.6,20-0.7c3.3-0.1,6.6-0.2,9.9-0.4c1.6-0.1,3.3-0.2,4.9-0.4
		c0.8-0.1,1.5-0.2,2.3-0.3l2.4-0.5c6.3-1.2,12.4-3.5,18.3-6.2l4.4-2.2c1.5-0.7,2.8-1.6,4.2-2.4c2.9-1.6,5.5-3.5,8.2-5.3
		c1.3-1,2.6-2,3.9-3l1.9-1.5c0.6-0.5,1.2-1.1,1.9-1.6l3.7-3.2l3.5-3.4l1.8-1.7l1.7-1.8l3.3-3.6l3.1-3.8c0.5-0.6,1.1-1.3,1.6-1.9
		l1.5-2c4-5.2,7.5-10.8,10.7-16.4l2.3-4.3c0.8-1.4,1.4-3,2.1-4.4l1-2.2c0.3-0.7,0.6-1.5,0.9-2.3l0.9-2.3l0.8-2.3
		c2.2-6.2,4-12.5,5.3-18.9c2.6-12.9,3.4-26.2,2.7-39.4c-0.8-13.2-2.5-26.5-6.5-39.2c2.4,6.2,4.2,12.7,5.6,19.2
		c1.4,6.5,2.3,13.2,3,19.8c1.3,13.3,0.9,26.9-1.4,40.2c-1.2,6.6-2.8,13.2-5,19.6l-0.8,2.4l-0.9,2.4c-0.3,0.8-0.6,1.6-0.9,2.4l-1,2.3
		c-0.7,1.5-1.3,3.1-2.1,4.6l-2.3,4.5c-3.3,5.9-6.7,11.7-10.8,17.1l-1.5,2.1c-0.5,0.7-1.1,1.3-1.6,2l-3.2,4l-3.4,3.8l-1.7,1.9
		l-1.8,1.8l-3.6,3.6l-3.8,3.4c-0.6,0.6-1.3,1.1-1.9,1.7l-2,1.6c-1.3,1-2.7,2.1-4,3.1c-2.8,1.9-5.5,3.9-8.5,5.6
		c-1.5,0.8-2.9,1.8-4.4,2.5l-4.6,2.3c-6.2,2.8-12.7,5.2-19.4,6.5l-2.5,0.5c-0.9,0.2-1.8,0.3-2.6,0.3c-1.7,0.2-3.4,0.3-5.1,0.4
		c-3.4,0.2-6.7,0.2-10,0.3c-6.7,0.2-13.3,0.2-19.9,0.5c-6.6,0.3-13.3,0.6-19.9,1.2c-6.6,0.5-13.1,1.3-19.6,2.6
		c-6.4,1.3-12.7,3.1-18.9,5.4l0.1-0.1c-1.3,0.6-2.6,1.6-3.9,2.5c-1.3,0.9-2.5,2-3.7,3c-2.4,2.2-4.5,4.6-6.4,7.1
		c-3.8,5.2-6.8,11-8.8,17.2c-2.1,6.2-3.2,12.6-3.7,19.2C245.8,432.7,246,439.3,246.6,445.9"/>
</g>
</svg>
